<?xml version="1.0" standalone="no"?>
<!DOCTYPE svg PUBLIC "-//W3C//DTD SVG 20010904//EN"
 "http://www.w3.org/TR/2001/REC-SVG-20010904/DTD/svg10.dtd">
<svg version="1.0" xmlns="http://www.w3.org/2000/svg"
 width="1444.000000pt" height="1508.000000pt" viewBox="0 0 1444.000000 1508.000000"
 preserveAspectRatio="xMidYMid meet">

<g transform="translate(0.000000,1508.000000) scale(0.100000,-0.100000)"
fill="#000000" stroke="none">
<path d="M0 7540 l0 -7540 7220 0 7220 0 0 7540 0 7540 -7220 0 -7220 0 0
-7540z m9456 7234 c31 -21 55 -67 99 -192 18 -53 66 -186 104 -294 39 -109 71
-207 71 -217 0 -11 4 -22 9 -26 6 -3 22 -45 37 -93 14 -48 33 -99 40 -113 7
-14 11 -29 8 -32 -3 -3 1 -18 10 -34 9 -15 20 -40 26 -55 5 -16 13 -28 18 -28
11 0 28 143 42 340 6 80 12 155 15 166 3 12 9 97 15 190 13 195 34 269 84 292
36 18 72 3 87 -35 6 -16 18 -40 26 -56 8 -15 12 -31 9 -36 -4 -5 -1 -22 4 -37
8 -19 6 -78 -5 -208 -9 -100 -18 -219 -21 -266 -5 -121 -53 -557 -81 -734 -8
-55 -26 -88 -64 -120 -26 -22 -38 -26 -63 -20 -49 10 -83 31 -99 61 -8 16 -21
42 -30 58 -8 17 -24 57 -35 90 -11 33 -43 120 -71 193 -28 74 -51 140 -51 149
0 8 -14 47 -31 86 -18 40 -60 157 -95 261 -35 103 -65 191 -68 194 -3 3 -8 -1
-10 -9 -8 -26 -75 -604 -86 -744 -10 -124 -14 -144 -37 -177 -27 -40 -86 -65
-124 -53 -57 18 -68 128 -43 410 16 177 61 546 70 568 3 8 6 31 8 53 26 306
34 366 52 409 32 77 112 103 180 59z m-661 -14 c25 -26 30 -40 32 -93 6 -100
-1 -105 -198 -139 -90 -15 -216 -31 -279 -34 -63 -4 -120 -11 -126 -16 -7 -5
-10 -26 -7 -51 2 -23 7 -98 11 -167 l7 -125 45 2 c25 2 67 3 95 3 27 1 54 5
60 9 5 5 46 12 90 15 44 3 114 8 155 12 72 6 77 5 101 -20 30 -29 40 -73 30
-128 -12 -73 -71 -107 -161 -95 -21 3 -42 2 -45 -2 -7 -6 -26 -9 -105 -15 -25
-2 -70 -11 -100 -19 -30 -9 -74 -15 -97 -14 -23 1 -44 -1 -47 -4 -9 -9 -9 -65
-1 -244 l8 -171 66 8 c36 4 107 14 156 23 50 8 130 20 178 25 49 6 100 13 114
16 43 11 98 -14 117 -53 19 -40 21 -98 3 -132 -26 -51 -57 -63 -234 -87 -311
-43 -521 -64 -545 -55 -79 30 -93 107 -119 661 -5 124 -14 281 -18 350 -5 69
-8 188 -7 265 1 137 2 141 30 181 l28 42 107 16 c164 24 207 28 274 28 34 0
67 4 73 9 7 5 60 11 119 13 58 2 109 7 112 10 15 15 52 3 78 -24z m-1257 -156
c44 -31 63 -95 48 -162 -10 -45 -54 -70 -201 -116 -66 -21 -171 -56 -234 -77
-62 -21 -121 -39 -130 -39 -38 -1 -42 -13 -26 -86 21 -92 35 -170 42 -222 3
-23 9 -45 14 -47 4 -3 47 9 96 26 90 32 136 48 305 101 126 40 158 36 187 -27
26 -56 26 -85 1 -134 -15 -30 -30 -43 -72 -59 -51 -21 -267 -91 -393 -128 -80
-24 -84 -27 -75 -72 4 -20 17 -89 29 -152 26 -133 42 -200 48 -200 6 0 162 50
203 65 32 12 190 65 300 100 25 9 53 15 63 15 80 0 128 -160 64 -217 -29 -27
-46 -35 -142 -67 -44 -15 -89 -31 -100 -36 -11 -5 -54 -19 -95 -30 -41 -12
-86 -27 -100 -34 -14 -7 -45 -18 -70 -26 -25 -7 -77 -23 -117 -36 -78 -26
-150 -31 -175 -11 -30 22 -56 91 -78 202 -11 61 -32 162 -45 225 -13 63 -44
225 -69 360 -25 135 -52 279 -60 320 -35 183 -39 208 -32 253 11 73 55 104
223 156 76 23 159 51 185 62 26 10 56 19 67 19 11 0 22 4 25 8 3 5 31 15 63
22 32 8 85 24 118 37 72 26 103 28 133 7z m-1325 -489 c152 -21 286 -264 263
-478 -8 -81 -61 -188 -126 -254 -48 -50 -56 -73 -26 -73 56 0 211 -122 317
-250 130 -157 140 -258 30 -313 -38 -19 -74 -22 -99 -8 -9 5 -98 90 -197 188
-191 189 -239 223 -316 223 -52 0 -159 -46 -159 -69 0 -9 11 -50 24 -91 14
-41 36 -118 51 -170 15 -52 35 -121 46 -152 25 -75 25 -163 0 -204 -35 -57
-108 -79 -157 -47 -36 23 -56 68 -104 238 -23 83 -50 175 -60 205 -24 71 -145
470 -205 674 -70 235 -60 288 61 351 33 18 67 36 75 41 8 5 16 9 19 10 3 0 16
5 30 11 14 6 48 20 75 31 28 11 86 37 130 57 44 21 91 39 105 40 14 1 38 10
53 20 30 19 84 34 107 30 8 -2 37 -6 63 -10z m5144 -552 c1 -34 0 -35 -8 -14
-9 22 -6 51 4 51 2 0 3 -17 4 -37z m-297 17 c0 -5 -4 -10 -9 -10 -6 0 -13 5
-16 10 -3 6 1 10 9 10 9 0 16 -4 16 -10z m383 -27 c-7 -2 -21 -2 -30 0 -10 3
-4 5 12 5 17 0 24 -2 18 -5z m-271 -43 c15 -35 22 -37 40 -12 24 34 37 35 25
2 -6 -16 -17 -30 -24 -30 -16 0 -17 -12 -1 -28 10 -10 10 -17 0 -32 -11 -18 1
-40 15 -27 3 3 16 2 29 -3 20 -8 25 -5 36 18 14 28 56 39 70 17 4 -5 32 -10
62 -10 30 0 58 -4 63 -9 4 -4 1 -7 -7 -5 -21 4 -60 -10 -60 -22 0 -5 -6 -9
-13 -9 -12 0 -34 -21 -51 -48 -5 -9 -1 -10 18 -2 22 8 28 6 38 -10 7 -11 18
-20 25 -20 6 0 14 -6 16 -12 3 -7 5 10 5 38 -1 65 5 74 46 74 23 0 39 -8 56
-27 21 -24 24 -25 35 -9 8 10 16 13 19 7 4 -5 2 -12 -4 -16 -19 -12 -10 -25
18 -24 24 0 25 1 7 10 -18 8 -18 8 5 6 18 -1 26 -9 28 -26 3 -18 0 -22 -12
-18 -10 4 -16 1 -16 -8 0 -8 7 -15 16 -15 23 0 11 -24 -14 -28 -16 -2 -20 -10
-20 -33 1 -32 24 -40 35 -11 4 9 16 24 28 34 19 15 20 15 27 -3 11 -29 31 -24
24 6 -9 34 5 31 26 -5 9 -17 24 -30 33 -30 21 0 19 -9 -7 -30 -22 -18 -22 -19
-4 -26 12 -5 21 -3 24 4 5 17 22 15 22 -4 0 -8 5 -12 11 -8 9 5 59 -40 59 -54
0 -2 -14 -2 -30 2 -28 5 -30 4 -20 -13 6 -13 17 -17 30 -14 11 3 20 1 20 -5 0
-5 -9 -12 -21 -15 -12 -3 -18 -10 -14 -17 5 -8 12 -7 24 4 22 20 35 20 27 1
-4 -12 0 -14 22 -9 15 4 29 10 32 13 3 4 22 12 43 18 32 10 37 9 37 -5 0 -12
-10 -18 -31 -19 -17 -1 -37 -7 -45 -14 -7 -6 -18 -8 -24 -4 -5 3 -10 2 -10 -4
0 -6 9 -15 20 -21 15 -8 19 -17 14 -35 -5 -19 -2 -25 11 -25 15 0 17 -7 12
-39 -4 -30 -2 -38 8 -35 7 3 11 13 8 22 -3 12 5 21 26 29 17 6 31 18 31 27 0
25 20 19 31 -10 11 -31 2 -75 -12 -53 -4 7 -10 11 -12 9 -8 -9 -59 -115 -52
-108 4 3 27 -2 52 -13 31 -13 57 -18 82 -14 l36 6 -30 -18 -30 -17 30 -7 c17
-4 24 -7 18 -8 -7 0 -13 -13 -13 -28 1 -27 1 -27 15 -9 17 22 17 22 39 -22 16
-32 36 -35 36 -6 0 8 9 14 20 14 25 0 26 -17 3 -23 -14 -4 -13 -5 4 -6 12 0
25 -6 28 -11 4 -6 10 -8 15 -5 5 3 12 0 16 -6 4 -6 -1 -16 -10 -21 -11 -6 -15
-21 -14 -49 1 -43 15 -60 29 -38 7 12 9 12 9 0 0 -10 3 -11 14 -2 11 9 16 9
22 0 4 -6 0 -16 -9 -21 -9 -5 -14 -15 -11 -23 7 -18 -7 -20 -24 -3 -7 7 -12 9
-12 5 0 -14 65 -66 78 -62 17 6 15 -14 -3 -21 -11 -5 -12 -10 -2 -25 15 -25
27 -24 27 1 0 37 34 16 42 -25 3 -14 11 -19 27 -17 30 3 22 -20 -10 -29 -13
-4 -17 -7 -8 -8 9 -1 19 -8 23 -16 3 -9 16 -20 28 -25 15 -6 17 -9 7 -9 -12
-1 -15 -8 -11 -26 4 -26 21 -35 23 -12 0 10 2 10 6 0 3 -8 24 -13 54 -13 27 0
49 -4 49 -10 0 -5 -7 -7 -16 -3 -12 4 -15 2 -12 -8 3 -8 16 -13 32 -12 17 1
26 -3 26 -13 0 -8 5 -15 10 -15 6 -1 15 -2 21 -3 15 -1 21 -56 9 -71 -13 -16
-8 -56 6 -51 7 3 18 -2 24 -10 10 -11 10 -14 -1 -14 -20 0 -17 -152 2 -159 12
-4 12 -2 0 12 -9 11 -10 17 -2 17 6 0 11 12 11 28 1 27 29 89 30 63 0 -8 7
-11 20 -8 11 3 22 1 25 -3 3 -5 -5 -10 -17 -13 -21 -3 -20 -5 10 -17 43 -16
34 -24 -12 -12 -37 11 -45 5 -24 -16 8 -8 9 -15 3 -20 -11 -7 -13 -57 -3 -67
3 -3 8 6 12 20 10 38 35 32 31 -8 -2 -24 2 -37 15 -45 16 -10 19 -7 25 18 4
16 4 34 0 40 -3 5 1 10 10 10 12 0 15 5 11 18 -7 16 -6 16 10 0 16 -15 16 -18
0 -33 -9 -9 -15 -28 -15 -43 1 -17 3 -21 6 -9 5 20 19 22 26 5 4 -10 8 -9 16
2 5 8 13 11 17 7 4 -4 -1 -13 -11 -21 -20 -15 -12 -38 10 -29 8 3 15 0 15 -6
0 -6 -7 -11 -16 -11 -8 0 -13 -4 -10 -9 3 -5 16 -7 29 -4 19 4 20 3 5 -7 -22
-13 -23 -39 -3 -54 10 -8 12 -15 5 -26 -9 -13 -11 -13 -20 0 -8 12 -10 10 -11
-10 -2 -24 -2 -24 -6 -2 -2 12 -7 22 -9 22 -7 0 -49 -40 -43 -41 2 -1 22 -3
44 -5 22 -2 45 -10 51 -19 7 -9 18 -13 28 -9 12 4 16 0 16 -15 0 -12 -6 -21
-12 -21 -8 0 -14 -15 -15 -35 -1 -19 2 -35 7 -35 5 0 15 -13 24 -30 13 -26 13
-30 0 -30 -9 0 -12 -4 -9 -10 3 -5 15 -10 26 -10 21 0 25 -20 7 -38 -9 -9 -7
-12 9 -12 12 0 25 -5 28 -10 4 -6 11 -8 16 -5 5 4 9 -1 9 -9 0 -11 8 -13 35
-9 23 4 35 2 35 -6 0 -6 -10 -11 -21 -11 -19 0 -20 -2 -8 -17 9 -12 3 -10 -18
5 -25 18 -37 21 -50 13 -11 -6 -13 -11 -5 -11 7 0 22 -9 34 -20 l22 -20 -22 0
c-15 0 -24 -8 -28 -24 -6 -27 -26 -39 -49 -30 -20 8 -19 1 10 -48 34 -59 36
-61 73 -80 l32 -17 1 27 c1 15 1 31 0 35 -1 4 11 6 26 5 22 -2 29 1 31 20 2
12 8 22 13 22 7 0 8 -13 4 -32 -10 -45 -13 -48 -42 -48 -22 0 -24 -3 -19 -25
4 -14 1 -34 -6 -45 -11 -17 -10 -22 2 -30 8 -5 20 -9 25 -9 6 0 5 3 -1 5 -16
7 -5 46 11 40 7 -2 12 2 11 10 0 8 13 22 29 32 17 9 32 18 35 20 3 2 -4 10
-14 18 -14 10 -16 14 -5 14 8 0 19 -4 25 -8 15 -10 23 -58 12 -74 -6 -9 -8 -8
-6 6 5 30 -21 31 -32 1 -6 -15 -19 -29 -30 -32 -32 -8 -23 -23 10 -16 19 3 30
1 30 -5 0 -6 -6 -9 -13 -6 -8 3 -20 -2 -27 -10 -10 -13 -9 -17 4 -22 9 -3 16
-12 16 -20 0 -8 7 -14 15 -14 8 0 15 -4 15 -10 0 -5 -5 -10 -10 -10 -6 0 -10
-8 -8 -17 2 -13 -3 -18 -19 -17 -13 0 -23 -4 -23 -9 0 -20 -46 -46 -80 -45
-23 0 -27 2 -12 5 29 6 29 25 0 21 -34 -5 -35 -34 -2 -42 27 -7 64 -40 64 -58
0 -5 5 -6 10 -3 6 3 10 18 10 33 0 21 2 24 10 12 9 -14 14 -7 11 13 -1 5 6 7
16 5 13 -3 17 -12 16 -31 -1 -21 2 -27 14 -25 13 2 16 -6 17 -39 0 -28 4 -43
12 -43 7 0 18 -8 23 -17 10 -17 10 -17 11 0 0 10 -7 20 -15 23 -8 4 -15 15
-15 25 0 18 1 18 20 -1 11 -11 21 -30 21 -42 1 -19 3 -17 9 7 7 28 7 27 5 -8
-2 -25 2 -40 12 -46 20 -11 8 -31 -18 -31 -10 0 -19 -7 -19 -15 0 -10 10 -15
34 -15 23 0 36 -6 40 -17 6 -15 8 -15 16 -3 8 12 10 11 10 -6 0 -30 9 -35 36
-17 29 19 31 47 4 66 -19 13 -19 13 1 30 10 9 21 17 23 17 2 0 6 -23 8 -50 1
-28 1 -50 -2 -50 -3 0 -11 -9 -18 -21 -10 -16 -11 -24 -1 -35 6 -8 9 -18 5
-22 -4 -4 -14 2 -22 12 -12 17 -17 18 -41 7 -21 -10 -24 -14 -12 -21 7 -5 23
-7 34 -4 19 6 20 6 1 -8 -13 -11 -16 -17 -7 -22 6 -4 8 -12 5 -18 -4 -7 -2 -8
4 -4 7 4 12 15 12 24 1 16 2 16 14 0 10 -14 15 -15 26 -5 10 10 11 7 6 -15 -5
-22 -3 -28 11 -29 13 0 11 -3 -7 -10 -17 -7 -26 -7 -28 0 -5 14 -32 14 -32 2
0 -6 5 -13 10 -16 15 -9 12 -53 -6 -80 -9 -14 -13 -25 -9 -25 4 0 2 -7 -5 -15
-11 -13 -9 -15 13 -15 17 0 26 -7 30 -21 4 -16 11 -20 26 -16 17 4 21 0 21
-18 0 -12 6 -22 13 -21 16 1 18 -10 10 -56 -5 -35 -8 -38 -37 -38 -21 0 -27 3
-17 9 8 5 9 11 3 15 -11 7 -27 -29 -18 -42 3 -5 -5 -8 -17 -7 -18 1 -23 9 -28
42 -4 31 -2 40 8 36 7 -3 13 2 13 10 0 9 8 21 18 26 15 9 15 10 -5 11 -13 0
-23 5 -23 10 0 6 5 10 12 10 6 0 9 2 7 5 -8 7 -49 -6 -49 -16 0 -5 7 -9 15 -9
25 0 17 -17 -14 -30 -25 -10 -29 -17 -29 -53 -1 -23 4 -47 10 -54 6 -7 8 -20
4 -28 -3 -8 -3 -22 0 -30 7 -18 34 -20 34 -2 0 18 24 67 33 67 4 0 7 -5 7 -12
0 -6 7 -4 18 5 24 22 34 21 55 -3 23 -28 22 -30 -17 -23 -31 5 -34 3 -38 -26
-3 -21 -1 -28 6 -22 7 6 19 3 31 -6 14 -11 16 -17 8 -20 -21 -8 -15 -26 7 -20
11 3 18 1 15 -3 -3 -5 5 -16 17 -24 12 -9 17 -16 10 -16 -6 0 -12 -4 -12 -10
0 -5 7 -10 15 -10 8 0 15 -7 15 -15 0 -23 18 -18 23 8 l4 22 2 -22 c0 -12 -5
-27 -11 -32 -53 -43 -79 -69 -71 -73 17 -10 68 -2 66 10 -2 7 5 20 15 30 26
26 56 6 47 -31 -10 -38 -41 -63 -59 -48 -8 7 -20 10 -26 6 -6 -4 -18 -1 -26 6
-12 10 -13 9 -8 -5 3 -9 10 -16 16 -16 5 0 7 -4 4 -9 -4 -5 6 -19 21 -30 16
-12 21 -18 12 -15 -10 3 -20 0 -24 -5 -3 -6 -11 -9 -16 -6 -17 11 -49 -6 -49
-25 0 -11 8 -24 18 -29 16 -10 16 -10 -2 -11 -15 0 -16 -3 -7 -14 7 -9 9 -25
4 -43 -4 -15 -6 -34 -5 -41 2 -9 -5 -11 -25 -7 -24 6 -26 5 -12 -7 9 -7 14
-19 11 -26 -2 -7 2 -11 8 -10 7 2 15 -3 17 -9 3 -7 -3 -13 -12 -13 -10 0 -15
-5 -12 -13 3 -7 -3 -19 -14 -25 -15 -10 -21 -8 -35 11 -11 14 -14 16 -11 5 4
-10 2 -20 -3 -23 -6 -4 -10 -1 -10 4 0 6 -7 11 -15 11 -13 0 -14 -4 -5 -20 6
-11 17 -20 25 -20 17 0 20 -16 5 -25 -6 -4 -8 -16 -4 -28 5 -16 -3 -12 -28 16
-37 40 -47 39 -62 -10 -9 -27 9 -31 23 -6 12 22 17 17 25 -22 7 -37 -9 -68
-23 -45 -8 12 -11 11 -16 -5 -13 -41 -22 -50 -49 -47 -42 5 -55 -12 -51 -68 4
-54 -3 -61 -54 -55 -33 4 -39 -3 -18 -24 10 -11 9 -13 -4 -8 -9 3 -20 -3 -27
-14 -10 -15 -24 -19 -67 -19 -30 0 -55 -4 -55 -10 0 -9 15 -12 89 -15 14 0 27
-7 29 -14 4 -11 -3 -13 -27 -8 -18 4 -31 2 -31 -3 0 -6 7 -10 15 -10 8 0 15
-4 15 -10 0 -5 -6 -10 -14 -10 -8 0 -17 -6 -19 -12 -3 -7 -6 -4 -6 6 -1 18 -2
18 -13 3 -7 -9 -26 -17 -43 -19 -29 -3 -45 -14 -45 -31 0 -4 10 -3 21 4 15 8
19 8 15 0 -4 -6 -1 -11 6 -12 10 0 10 -2 -1 -6 -11 -5 -11 -7 0 -14 9 -6 10
-9 2 -9 -6 0 -14 4 -17 9 -3 5 -15 7 -26 4 -14 -4 -20 -1 -18 7 2 7 -3 15 -9
17 -8 3 -13 -4 -13 -16 0 -20 -41 -47 -64 -42 -4 1 -18 -1 -30 -5 -21 -7 -21
-7 -1 -15 16 -6 14 -8 -12 -8 -23 -1 -33 4 -33 14 0 8 -4 15 -9 15 -5 0 -7 -9
-4 -21 4 -12 -2 -27 -13 -38 -18 -16 -59 -36 -59 -29 0 2 -8 -4 -17 -12 -9 -8
-14 -18 -11 -22 2 -5 0 -8 -6 -8 -5 0 -16 -3 -25 -6 -11 -4 -16 0 -16 12 -1
18 -1 18 -12 0 -8 -15 -8 -21 0 -24 27 -9 -2 -22 -34 -16 -29 5 -38 3 -51 -15
-8 -12 -26 -26 -40 -32 -13 -5 -21 -14 -18 -19 4 -7 -7 -9 -29 -6 -33 4 -60
-8 -35 -16 16 -5 0 -35 -29 -54 -15 -9 -24 -14 -20 -10 7 8 -21 46 -34 46 -5
0 -8 -15 -8 -33 0 -32 -15 -57 -33 -57 -5 0 -4 6 2 14 10 12 9 13 -8 9 -12 -3
-18 -12 -16 -22 2 -14 -2 -17 -21 -15 -16 1 -24 -3 -24 -13 0 -10 -6 -14 -20
-10 -13 3 -20 0 -20 -8 0 -20 -31 -47 -47 -41 -8 3 -11 2 -8 -3 3 -5 1 -12 -5
-16 -5 -3 -10 -2 -10 4 0 11 -59 -9 -61 -21 -1 -4 -2 -13 -3 -20 0 -6 -17 -13
-36 -16 -19 -2 -45 -10 -58 -18 -13 -9 -29 -13 -35 -11 -7 2 -23 -4 -37 -13
-22 -15 -55 -17 -295 -16 -256 1 -348 -5 -459 -33 -21 -5 -43 -14 -49 -20 -6
-6 -17 -11 -25 -11 -24 0 -137 -87 -206 -158 -62 -64 -136 -155 -136 -166 0
-3 -15 -26 -34 -50 -34 -44 -104 -158 -165 -266 -53 -94 -190 -375 -321 -660
-206 -447 -239 -512 -259 -505 -10 4 -12 -1 -8 -16 6 -24 -11 -59 -29 -59 -7
0 -18 10 -26 23 -9 12 -29 36 -45 52 -46 47 -162 200 -243 320 -40 61 -81 121
-90 135 -47 68 -86 130 -113 180 -54 98 -244 395 -374 586 -163 238 -417 490
-573 569 -77 39 -170 65 -435 125 -264 59 -360 113 -439 245 -54 90 -48 115
29 115 61 0 94 -11 88 -29 -4 -14 -3 -14 10 2 9 11 28 17 56 17 95 0 134 41
196 203 20 53 41 97 46 97 5 0 9 8 9 18 0 20 50 100 87 140 24 26 124 225 143
284 6 21 16 40 21 43 5 4 9 20 9 37 0 16 6 53 14 81 8 29 17 88 20 132 10 132
35 234 78 323 55 115 66 223 50 521 -11 211 -12 219 -50 331 -44 130 -123 288
-185 370 -23 30 -77 89 -121 132 -69 67 -96 85 -220 146 -77 38 -168 80 -201
93 -63 23 -98 46 -90 59 3 4 -2 11 -11 14 -12 5 -14 14 -9 38 9 44 28 88 38
88 5 0 6 4 2 9 -3 6 1 13 9 18 18 10 37 91 71 298 23 144 64 304 85 330 4 6
22 38 40 73 27 53 35 62 53 57 12 -2 16 -2 10 1 -10 4 -10 12 2 32 23 45 84
103 103 100 27 -4 42 11 42 42 0 20 6 31 20 35 11 3 20 10 20 14 0 4 13 6 29
3 16 -2 32 1 35 7 4 6 18 11 32 11 14 0 27 7 30 15 4 8 10 12 15 9 5 -3 9 -1
9 5 0 5 -4 13 -10 16 -18 11 -10 25 15 25 14 0 25 5 25 10 0 6 9 10 21 10 11
0 33 9 48 19 21 16 38 19 74 15 27 -3 47 -1 47 4 0 12 161 26 188 18 14 -5 18
-13 15 -26 -7 -24 24 -28 34 -4 7 19 71 11 122 -17 29 -16 32 -19 16 -25 -13
-6 -6 -10 30 -20 27 -6 54 -10 61 -7 6 2 20 -14 30 -36 18 -38 34 -51 78 -65
11 -4 16 -12 12 -22 -5 -12 0 -14 28 -8 29 5 37 2 51 -19 9 -14 25 -27 35 -30
11 -3 23 -13 26 -24 4 -10 20 -31 37 -46 21 -19 27 -31 20 -38 -17 -17 -4 -48
17 -44 25 5 43 -19 35 -45 -4 -12 -2 -20 6 -20 14 0 38 -30 39 -47 0 -7 -7
-13 -15 -13 -19 0 -19 -24 0 -40 8 -7 13 -15 10 -19 -2 -4 2 -19 9 -33 14 -27
31 -130 27 -162 -2 -11 3 -46 9 -78 9 -42 10 -61 2 -71 -9 -10 -8 -18 2 -33
14 -21 40 -150 32 -163 -3 -4 2 -36 10 -72 31 -138 44 -217 44 -279 0 -95 -19
-202 -50 -285 -5 -11 -14 -36 -21 -55 -7 -19 -21 -48 -31 -65 -9 -16 -25 -46
-35 -65 -9 -19 -37 -66 -62 -105 l-44 -70 -14 -155 c-7 -85 -17 -203 -23 -262
-11 -130 -6 -199 17 -247 14 -29 34 -44 98 -77 44 -22 107 -54 140 -71 145
-76 255 -94 332 -54 23 11 46 27 50 34 4 7 35 33 69 58 33 25 70 54 82 65 12
10 54 36 94 57 380 202 724 179 1188 -78 36 -20 69 -41 74 -46 17 -16 51 -10
66 13 18 26 136 184 150 201 34 41 60 67 65 67 3 0 11 5 18 10 7 6 21 18 32
26 11 9 14 12 6 8 -9 -4 -12 -3 -7 4 3 6 19 9 34 7 15 -2 21 -2 14 1 -15 7 3
34 23 34 6 0 22 9 35 20 19 16 26 18 38 7 10 -7 13 -8 9 -1 -8 15 34 27 60 18
15 -6 16 -4 6 7 -18 19 -16 31 5 27 9 -1 23 1 30 5 8 5 12 3 12 -7 0 -10 9
-16 21 -16 15 0 19 5 14 19 -7 24 17 31 115 31 75 0 250 -37 325 -69 11 -5 36
-15 55 -21 19 -7 52 -26 73 -43 48 -37 69 -26 48 26 -16 40 -22 69 -26 132 -2
28 -5 52 -6 55 -1 3 -1 9 0 14 1 4 -2 13 -7 20 -14 17 -22 85 -11 91 5 4 9 12
9 18 0 7 -4 6 -10 -3 -5 -8 -10 -10 -10 -4 0 5 5 15 11 21 13 13 2 36 -13 27
-6 -4 -8 3 -6 17 2 16 9 23 21 21 9 -2 17 2 17 8 0 5 -7 10 -15 10 -10 0 -13
9 -10 29 2 18 -2 35 -11 42 -10 8 -13 21 -9 36 4 16 -1 33 -14 49 -16 21 -18
30 -9 54 5 17 14 28 18 25 13 -8 20 23 10 47 -9 23 -9 23 -10 -2 -1 -14 -4
-19 -7 -12 -2 6 -8 10 -13 7 -4 -3 -11 2 -14 11 -3 8 -2 12 3 9 18 -11 24 18
6 31 -10 8 -15 20 -11 29 4 11 2 14 -6 9 -8 -5 -9 0 -5 17 4 13 7 37 7 52 0
17 4 26 10 22 6 -4 8 -11 5 -16 -4 -5 -3 -14 1 -21 5 -8 10 -6 15 8 12 31 10
44 -7 44 -11 0 -14 5 -10 16 3 9 3 21 -1 27 -12 20 -14 47 -2 47 6 0 9 10 7
23 -4 31 -58 33 -58 2 0 -16 -2 -17 -10 -5 -17 27 -12 67 10 73 13 3 18 10 14
21 -5 12 -2 15 10 10 12 -5 15 -2 10 10 -8 20 -34 21 -34 1 0 -8 -7 -15 -15
-15 -22 0 -18 27 5 40 21 11 28 40 9 40 -7 0 -9 9 -5 22 4 17 -2 29 -21 45
-28 25 -24 30 9 12 18 -10 20 -9 15 6 -4 9 -7 23 -7 31 0 9 -4 13 -9 9 -5 -3
-12 -1 -16 5 -3 5 1 10 9 10 9 0 16 5 16 10 0 6 -4 10 -10 10 -5 0 -10 12 -10
26 0 15 -4 23 -11 19 -7 -5 -10 10 -8 45 2 43 -1 57 -20 78 -14 16 -19 28 -12
30 6 2 11 10 11 18 0 8 11 14 28 15 15 0 21 3 14 6 -10 4 -10 9 3 23 19 21 12
42 -10 33 -19 -7 -21 33 -2 41 6 4 2 4 -10 2 -14 -3 -23 1 -23 9 0 7 -7 18
-15 25 -11 9 -12 17 -4 31 7 15 6 19 -6 19 -19 0 -19 2 0 47 17 41 18 46 6 39
-5 -4 -11 0 -14 6 -2 7 -8 1 -12 -14 -4 -16 -12 -28 -17 -28 -6 0 -7 7 -4 16
4 12 2 15 -9 11 -8 -4 -17 -2 -20 3 -4 6 1 10 9 10 20 0 21 16 1 24 -20 7 -19
32 3 40 9 3 22 8 29 12 7 3 14 -8 19 -28 l7 -33 10 38 c7 29 6 42 -5 55 -8 9
-19 29 -26 45 -6 15 -16 27 -22 27 -6 0 -3 11 6 25 16 24 16 25 -7 27 -31 2
-61 -1 -78 -7 -23 -9 8 -37 32 -29 17 5 19 3 14 -17 -4 -13 -7 -31 -7 -40 0
-11 -7 -14 -29 -11 -26 4 -29 9 -35 53 -4 26 -11 51 -16 54 -6 3 -10 15 -10
27 0 17 2 18 15 8 9 -7 18 -10 22 -6 4 3 -2 12 -12 20 -10 7 -15 18 -12 24 5
6 0 8 -13 5 -15 -4 -18 -9 -10 -18 8 -10 8 -15 -1 -20 -16 -11 -62 39 -57 61
4 17 6 16 16 -6 7 -17 11 -20 11 -8 1 22 -48 68 -71 68 -10 0 -18 7 -18 16 0
8 5 12 10 9 6 -3 10 -1 10 5 0 8 -7 9 -17 5 -33 -13 -48 -10 -58 13 -7 16 -16
21 -31 18 -11 -3 -30 2 -43 10 -21 15 -22 15 -19 -2 2 -13 -4 -20 -19 -22 -16
-2 -23 2 -23 13 0 9 -4 14 -10 10 -5 -3 -7 -12 -3 -20 3 -9 -1 -15 -11 -15 -9
0 -17 8 -17 18 -1 15 -2 15 -6 1 -2 -11 -11 -15 -22 -12 -10 3 -25 -2 -32 -9
-7 -8 -23 -13 -36 -10 -13 2 -45 -7 -74 -23 -28 -14 -54 -24 -57 -21 -3 3 -13
-1 -23 -10 -10 -9 -36 -16 -59 -17 -24 -1 -45 -8 -50 -17 -8 -12 -13 -13 -30
-2 -12 7 -20 8 -20 2 0 -12 -33 -14 -44 -2 -10 10 -86 10 -80 0 7 -11 -2 -10
-49 4 -35 10 -41 10 -52 -6 -10 -13 -25 -17 -64 -15 -49 2 -63 11 -41 24 6 3
10 10 10 14 0 15 -37 51 -53 51 -8 0 -18 6 -21 13 -3 6 -3 0 0 -14 4 -18 1
-28 -10 -32 -25 -10 -19 -22 25 -46 45 -26 47 -37 4 -21 -16 6 -43 11 -62 12
-26 1 -33 6 -33 21 0 10 -9 21 -20 24 -11 3 -20 9 -20 14 0 5 -10 9 -22 9 -19
0 -20 1 -5 18 10 10 13 23 8 32 -5 8 -12 25 -15 37 -6 19 -4 22 9 17 13 -5 16
-2 13 17 -2 14 2 24 10 25 6 1 14 2 16 3 3 0 0 15 -6 31 -8 23 -7 36 4 53 19
30 21 72 3 87 -7 6 -26 10 -42 8 -20 -2 -36 5 -55 25 -32 32 -34 42 -12 51 21
8 15 52 -7 48 -11 -1 -18 7 -21 25 -3 16 -9 37 -13 47 -7 15 -5 17 6 11 12 -7
12 -6 1 7 -10 12 -10 17 1 26 7 6 14 32 15 58 1 26 7 51 13 55 8 5 8 12 0 27
-16 31 -14 41 14 48 29 7 31 16 10 38 -8 8 -15 18 -15 22 0 5 5 3 12 -4 23
-23 47 -13 68 28 13 26 25 38 33 34 7 -4 9 -3 4 1 -9 10 22 47 34 39 5 -3 15
-2 22 3 6 4 17 8 22 8 13 0 14 48 2 56 -21 15 6 29 43 23 36 -6 40 -4 49 20 7
17 15 24 26 20 8 -3 15 -2 15 4 0 5 6 12 14 15 11 5 13 0 5 -25 -6 -21 -5 -36
2 -45 6 -7 8 -13 4 -13 -4 0 -14 8 -21 18 -12 16 -13 16 -19 0 -9 -22 1 -51
15 -43 14 9 13 -8 -2 -23 -8 -8 -8 -15 2 -27 20 -24 30 -18 30 20 0 20 8 48
17 62 17 26 17 27 -1 20 -15 -6 -17 -4 -11 10 6 16 10 34 14 71 2 22 19 13 33
-18z m-148 4 c5 -12 2 -15 -10 -10 -8 3 -18 6 -20 6 -3 0 -2 5 1 10 9 15 22
12 29 -6z m326 -21 c0 -8 5 -11 10 -8 6 3 10 -1 10 -9 0 -9 -2 -16 -4 -16 -2
0 -12 -3 -21 -7 -14 -5 -16 -2 -10 16 6 20 4 22 -14 16 -15 -4 -21 -2 -21 8 0
20 9 26 31 20 10 -3 19 -12 19 -20z m-6347 -49 c81 -41 115 -71 143 -127 43
-83 30 -167 -32 -216 -38 -30 -81 -26 -134 10 -98 66 -140 82 -200 76 -64 -5
-110 -27 -192 -87 -48 -36 -61 -53 -88 -116 -72 -165 -53 -370 55 -586 45 -89
112 -181 156 -214 46 -34 146 -64 194 -59 82 9 195 66 250 125 11 11 30 32 43
44 28 29 72 94 72 106 0 5 7 13 15 17 13 8 8 26 -29 118 -24 61 -47 109 -51
109 -10 -2 -154 -85 -194 -111 -47 -32 -84 -30 -115 7 -57 69 -44 158 33 214
27 20 51 36 54 36 6 0 72 42 92 58 6 4 33 19 60 32 28 13 63 34 78 47 42 34
86 31 125 -10 44 -45 192 -397 192 -455 0 -34 -25 -107 -49 -141 -9 -14 -28
-48 -42 -74 -35 -71 -137 -187 -216 -247 -75 -57 -219 -130 -255 -130 -13 0
-29 -5 -35 -11 -12 -12 -120 -15 -184 -4 -188 32 -406 268 -480 520 -9 33 -25
80 -34 104 -51 140 -43 396 18 535 9 21 17 40 17 43 0 2 20 34 45 72 97 148
218 244 384 308 72 27 100 32 169 33 70 0 91 -4 135 -26z m6317 17 c0 -6 -4
-13 -10 -16 -5 -3 -10 1 -10 9 0 9 5 16 10 16 6 0 10 -4 10 -9z m-49 -37 c12
-32 10 -35 -19 -27 -17 4 -20 8 -11 19 6 7 8 18 4 24 -3 5 -1 10 5 10 6 0 15
-12 21 -26z m184 8 c-3 -3 -11 0 -18 7 -9 10 -8 11 6 5 10 -3 15 -9 12 -12z
m-45 -2 c-19 -13 -30 -13 -30 0 0 6 10 10 23 10 18 0 19 -2 7 -10z m130 -36
c0 -2 -7 -4 -15 -4 -8 0 -15 4 -15 10 0 5 7 7 15 4 8 -4 15 -8 15 -10z m-102
-68 c0 -19 -3 -22 -13 -13 -7 7 -10 18 -8 24 8 21 21 14 21 -11z m282 -30 c0
-15 -7 -26 -20 -29 -13 -3 -20 0 -20 10 0 8 4 12 9 8 5 -3 12 4 16 15 9 27 15
25 15 -4z m-910 -26 c0 -5 -4 -10 -10 -10 -5 0 -10 5 -10 10 0 6 5 10 10 10 6
0 10 -4 10 -10z m1175 -198 c-3 -3 -11 0 -18 7 -9 10 -8 11 6 5 10 -3 15 -9
12 -12z m85 -88 c0 -6 -13 -9 -30 -6 -24 3 -30 1 -30 -14 0 -16 -2 -17 -10 -4
-17 27 -11 35 30 35 22 0 40 -5 40 -11z m-28 -66 c-9 -9 -12 -7 -12 12 0 19 3
21 12 12 9 -9 9 -15 0 -24z m92 -94 c3 -8 2 -12 -4 -9 -6 3 -10 10 -10 16 0
14 7 11 14 -7z m-4 -34 c0 -5 -5 -10 -11 -10 -5 0 -7 5 -4 10 3 6 8 10 11 10
2 0 4 -4 4 -10z m-1320 -33 c12 4 13 3 1 -5 -11 -8 -11 -16 -3 -41 11 -30 10
-31 -13 -27 -13 3 -34 13 -45 24 l-21 20 20 14 c12 8 18 18 13 23 -4 4 2 3 13
-2 11 -6 27 -8 35 -6z m1380 9 c0 -2 -7 -7 -16 -10 -8 -3 -12 -2 -9 4 6 10 25
14 25 6z m45 -76 c3 -5 1 -10 -4 -10 -6 0 -11 5 -11 10 0 6 2 10 4 10 3 0 8
-4 11 -10z m70 0 c3 -5 -1 -10 -9 -10 -9 0 -16 5 -16 10 0 6 4 10 9 10 6 0 13
-4 16 -10z m-38 -32 c-3 -8 -6 -5 -6 6 -1 11 2 17 5 13 3 -3 4 -12 1 -19z
m-8514 -45 c108 -37 221 -191 248 -338 20 -110 -6 -236 -68 -330 -18 -27 -33
-53 -33 -57 0 -4 21 -10 48 -13 80 -10 218 -66 321 -130 78 -48 98 -63 132
-99 42 -44 55 -86 45 -141 -8 -42 -50 -93 -90 -110 -44 -19 -86 -3 -263 98
-239 137 -311 164 -388 147 -44 -10 -164 -89 -165 -108 0 -7 20 -47 45 -88 25
-40 45 -75 45 -77 0 -2 36 -68 80 -147 84 -151 100 -204 81 -262 -21 -60 -53
-90 -105 -95 -45 -5 -49 -4 -89 38 -23 25 -92 132 -153 239 -120 210 -332 577
-421 728 -31 51 -62 119 -70 150 -26 101 -11 125 191 287 48 39 131 106 184
150 201 166 297 202 425 158z m7034 -53 c-3 -11 0 -20 6 -20 6 0 7 -3 4 -6 -9
-9 -37 15 -37 32 0 8 7 14 16 14 11 0 15 -6 11 -20z m1658 -8 c-3 -3 -14 -6
-25 -7 -15 -1 -17 1 -9 11 6 7 17 10 25 7 8 -3 12 -8 9 -11z m-70 -32 c3 -6
-1 -7 -9 -4 -18 7 -21 14 -7 14 6 0 13 -4 16 -10z m79 2 c2 -4 -4 -8 -14 -8
-10 0 -16 4 -14 8 3 4 9 8 14 8 5 0 11 -4 14 -8z m-574 -32 c0 -5 -2 -10 -4
-10 -3 0 -8 5 -11 10 -3 6 -1 10 4 10 6 0 11 -4 11 -10z m150 -66 c0 -8 -4
-12 -10 -9 -5 3 -10 10 -10 16 0 5 5 9 10 9 6 0 10 -7 10 -16z m403 9 c-7 -2
-19 -2 -25 0 -7 3 -2 5 12 5 14 0 19 -2 13 -5z m47 -13 c0 -5 -2 -10 -4 -10
-3 0 -8 5 -11 10 -3 6 -1 10 4 10 6 0 11 -4 11 -10z m-1600 -30 c0 -5 -9 -10
-19 -10 -11 0 -23 5 -26 10 -4 6 5 10 19 10 14 0 26 -4 26 -10z m560 0 c0 -5
-5 -10 -11 -10 -5 0 -7 5 -4 10 3 6 8 10 11 10 2 0 4 -4 4 -10z m75 0 c3 -5 1
-10 -4 -10 -6 0 -11 5 -11 10 0 6 2 10 4 10 3 0 8 -4 11 -10z m558 -125 c-3
-9 -8 -14 -10 -11 -3 3 -2 9 2 15 9 16 15 13 8 -4z m472 -35 c-3 -5 -10 -10
-16 -10 -5 0 -9 5 -9 10 0 6 7 10 16 10 8 0 12 -4 9 -10z m55 0 c0 -5 -2 -10
-4 -10 -3 0 -8 5 -11 10 -3 6 -1 10 4 10 6 0 11 -4 11 -10z m-330 -36 c0 -8
-5 -12 -10 -9 -6 4 -8 11 -5 16 9 14 15 11 15 -7z m-50 -60 c0 -19 -4 -33 -8
-30 -8 5 -4 66 4 66 2 0 4 -16 4 -36z m784 -80 c9 -24 7 -28 -9 -14 -17 14
-20 30 -6 30 5 0 12 -7 15 -16z m-730 -62 c8 -13 -5 -52 -16 -46 -5 3 -7 13
-3 22 3 8 0 19 -7 24 -10 6 -9 8 4 8 9 0 19 -4 22 -8z m43 -106 c-3 -8 -1 -16
5 -18 6 -2 9 -9 7 -14 -2 -6 -14 2 -27 18 l-24 28 22 0 c15 0 20 -5 17 -14z
m31 -75 c3 -8 -1 -12 -9 -9 -7 2 -15 10 -17 17 -3 8 1 12 9 9 7 -2 15 -10 17
-17z m-9731 -76 c33 -23 63 -79 63 -116 0 -51 -68 -144 -218 -299 -35 -36 -80
-85 -100 -109 -20 -25 -61 -68 -89 -96 -29 -28 -53 -57 -53 -63 0 -12 171
-242 195 -262 18 -15 46 11 153 138 75 88 97 112 204 225 74 77 88 87 119 87
36 0 73 -29 98 -78 16 -31 4 -90 -27 -127 -39 -47 -147 -168 -269 -302 -62
-68 -113 -130 -113 -139 0 -9 15 -33 33 -54 17 -20 57 -70 87 -111 30 -40 69
-88 85 -107 l30 -33 76 78 c42 43 109 116 149 163 40 47 85 93 101 102 16 10
29 22 29 26 0 18 73 101 109 125 46 30 78 26 117 -14 22 -23 29 -41 32 -87 4
-55 2 -60 -35 -107 -44 -55 -216 -246 -308 -342 -33 -34 -87 -92 -120 -129
-95 -106 -138 -143 -171 -150 -41 -8 -85 15 -121 62 -33 43 -213 267 -351 438
-54 66 -132 165 -176 220 -43 56 -104 130 -135 165 -66 76 -80 101 -88 156 -7
55 11 89 91 169 34 35 73 77 85 92 13 16 55 65 95 109 40 44 94 105 120 135
163 189 210 237 240 243 38 8 41 7 63 -8z m10410 -5 c-1 -11 -5 -20 -9 -20 -4
0 -8 9 -8 20 0 11 4 20 9 20 6 0 9 -9 8 -20z m47 -115 c6 -17 -9 -21 -19 -5
-4 6 -11 8 -16 5 -5 -4 -9 -1 -9 4 0 17 37 13 44 -4z m63 -17 c-3 -8 -6 -5 -6
6 -1 11 2 17 5 13 3 -3 4 -12 1 -19z m-67 -32 c-38 -13 -54 -11 -30 4 8 6 26
10 40 9 22 0 20 -2 -10 -13z m50 -22 c0 -6 -3 -13 -6 -17 -7 -7 -55 14 -50 22
7 11 56 6 56 -5z m30 -45 c0 -5 -9 -9 -20 -9 -19 0 -26 11 -14 23 8 8 34 -3
34 -14z m-60 -23 c0 -3 -4 -8 -10 -11 -5 -3 -10 -1 -10 4 0 6 5 11 10 11 6 0
10 -2 10 -4z m66 -102 c-3 -9 -6 -25 -6 -37 0 -20 0 -20 -15 -1 -22 28 -19 54
6 54 15 0 19 -4 15 -16z m-32 -69 c-4 -8 -11 -12 -17 -8 -8 5 -7 8 1 11 7 2 9
9 6 14 -4 7 -2 8 4 4 6 -4 9 -13 6 -21z m80 -14 c4 -5 -3 -7 -15 -4 -15 4 -22
0 -26 -16 -6 -25 -44 -26 -50 -1 -4 12 -3 13 5 1 8 -11 12 -10 21 8 12 21 55
29 65 12z m-5689 -62 c77 -8 132 -20 183 -40 155 -62 338 -210 413 -334 110
-182 157 -324 179 -541 11 -105 8 -289 -5 -302 -3 -3 -20 0 -38 6 -19 7 -36
12 -39 12 -3 0 -8 -60 -11 -132 -20 -443 -92 -703 -263 -950 -34 -48 -91 -157
-114 -218 -20 -53 -58 -100 -81 -100 -12 0 -57 9 -101 21 -86 21 -144 19 -185
-7 -37 -24 -63 -94 -63 -173 0 -93 18 -221 35 -246 28 -42 113 -123 136 -130
13 -4 38 -18 55 -31 55 -43 168 -78 409 -128 61 -13 139 -35 174 -50 36 -14
71 -26 80 -26 21 0 181 -80 181 -91 0 -5 5 -9 10 -9 20 0 116 -78 192 -156 99
-103 189 -227 283 -392 77 -136 140 -240 162 -267 13 -16 27 -35 32 -40 4 -6
10 -15 12 -21 4 -9 167 -225 260 -344 192 -247 285 -382 344 -505 103 -215
129 -307 150 -545 11 -114 -31 -264 -128 -460 -40 -81 -58 -106 -77 -111 -14
-4 -19 -7 -12 -8 21 -2 13 -37 -20 -82 -17 -24 -31 -46 -29 -49 1 -3 -9 -19
-23 -37 -15 -18 -26 -36 -26 -41 0 -9 -41 -79 -92 -157 -150 -230 -418 -694
-418 -725 0 -4 33 -7 73 -7 104 -1 728 -31 887 -43 74 -6 155 -11 179 -12 33
-1 45 -6 49 -20 2 -10 13 -18 23 -18 10 0 21 -5 25 -11 4 -7 10 -7 16 -1 6 6
16 9 22 7 6 -2 23 -6 37 -9 19 -4 25 -12 25 -28 -1 -14 5 -23 14 -23 8 0 15 9
15 20 0 18 6 20 50 17 28 -2 52 -5 53 -7 9 -8 -11 -45 -23 -45 -9 0 -12 -6 -9
-15 4 -9 0 -15 -10 -15 -9 0 -16 5 -16 10 0 6 -5 10 -11 10 -6 0 -9 -10 -7
-22 3 -26 31 -27 55 -2 20 20 30 18 37 -8 11 -43 7 -52 -15 -27 -13 15 -23 19
-27 12 -4 -6 -24 -15 -45 -21 -21 -6 -35 -6 -32 -1 4 5 -9 9 -29 9 -19 0 -42
3 -52 7 -13 5 -15 3 -9 -8 5 -8 -1 -6 -13 4 -11 11 -26 16 -32 12 -7 -4 -16
-1 -21 6 -6 10 -9 8 -9 -10 0 -23 -1 -23 -18 -8 -10 10 -29 17 -43 17 -19 0
-21 -2 -9 -10 13 -8 12 -10 -2 -10 -10 0 -18 -3 -18 -8 0 -4 -24 -7 -52 -6
-29 1 -56 -4 -60 -10 -5 -8 -8 -7 -8 1 0 9 -10 11 -30 7 -18 -4 -36 -1 -45 6
-8 7 -22 9 -31 6 -9 -4 -23 -1 -30 5 -11 9 -14 8 -14 -6 0 -15 -9 -16 -70 -12
-72 4 -85 -3 -52 -30 9 -8 10 -11 2 -7 -8 4 -27 7 -43 6 -17 -2 -26 2 -22 8 3
5 13 10 20 10 8 0 12 6 9 14 -3 8 -11 13 -17 11 -7 -2 -25 -6 -40 -10 -20 -4
-27 -10 -23 -20 4 -10 -1 -15 -14 -15 -22 0 -27 16 -7 23 7 3 5 6 -5 6 -10 1
-18 -3 -18 -9 0 -18 -29 -10 -35 10 -3 11 -11 20 -17 20 -5 0 -7 -7 -4 -16 8
-22 -4 -40 -16 -23 -7 11 -11 11 -15 2 -7 -20 -133 -18 -133 2 0 8 -4 15 -10
15 -5 0 -10 -6 -10 -14 0 -12 -22 -15 -105 -18 -113 -3 -128 -2 -119 13 3 5
-4 9 -15 9 -10 0 -21 -5 -23 -10 -2 -7 -158 -12 -448 -15 -467 -4 -621 -11
-631 -27 -4 -6 -9 -6 -14 2 -7 12 -177 9 -327 -6 -49 -5 -58 -3 -58 10 0 9 -5
16 -10 16 -6 0 -9 -6 -8 -12 2 -9 -23 -15 -82 -20 -47 -3 -177 -14 -290 -24
-113 -9 -221 -18 -240 -20 -19 -1 -51 -5 -70 -8 -19 -2 -73 -7 -120 -10 -47
-4 -123 -11 -170 -16 -121 -15 -237 -24 -292 -25 -27 0 -48 -3 -48 -6 0 -3
-19 -6 -42 -8 -56 -3 -94 -7 -143 -15 -26 -5 -35 -4 -26 2 11 8 10 11 -5 16
-25 8 -80 -8 -76 -23 3 -16 -17 -14 -36 5 -14 15 -17 14 -35 -10 -17 -24 -77
-40 -62 -16 5 9 1 10 -32 10 -4 0 -8 -8 -8 -18 0 -12 -7 -16 -25 -13 -14 1
-27 7 -30 11 -8 13 -80 40 -80 29 0 -5 6 -9 14 -9 8 0 17 -4 20 -9 10 -15 -5
-41 -23 -41 -14 1 -14 2 2 14 16 13 16 14 -7 20 -13 3 -32 9 -42 13 -11 4 -15
3 -11 -4 4 -6 -3 -13 -15 -16 -12 -4 -25 -2 -28 3 -3 5 -11 5 -20 0 -8 -6 -27
-10 -42 -10 -16 0 -28 -5 -28 -10 0 -6 -24 -10 -57 -10 -32 1 -74 -1 -93 -3
-125 -18 -185 -30 -188 -36 -1 -5 -19 -6 -38 -4 -23 2 -33 0 -29 -7 3 -5 2
-10 -4 -10 -5 0 -12 6 -14 13 -4 8 -8 9 -14 1 -10 -14 -76 -27 -68 -14 3 6 -1
7 -9 4 -9 -3 -13 -10 -11 -15 8 -13 -42 -22 -103 -20 -25 1 -35 6 -39 21 -6
24 -23 16 -23 -11 0 -16 -5 -18 -27 -15 -17 4 -31 -1 -40 -12 -11 -13 -16 -14
-20 -4 -4 10 -8 10 -19 1 -10 -8 -18 -8 -27 -1 -10 8 -17 6 -27 -8 -10 -14
-17 -16 -27 -8 -9 7 -13 7 -13 0 0 -11 -28 -13 -68 -6 -13 3 -20 8 -17 13 2 5
-2 11 -10 15 -8 3 -15 1 -15 -4 0 -6 -7 -10 -15 -10 -8 0 -15 -5 -15 -10 0 -6
-19 -10 -42 -9 -24 0 -69 -1 -102 -4 -32 -2 -53 -1 -46 3 9 6 9 9 -1 16 -7 4
-14 3 -17 -4 -5 -15 -32 -16 -32 -2 0 6 -10 10 -22 10 -19 0 -20 -2 -8 -10 12
-8 9 -10 -12 -10 -31 0 -45 15 -23 24 21 8 19 26 -2 26 -16 1 -16 2 2 15 11 8
26 19 33 26 7 6 20 8 28 5 11 -4 13 0 8 19 -5 20 -2 25 12 25 16 0 17 -2 4
-10 -12 -8 -11 -12 8 -30 12 -11 22 -26 22 -33 0 -7 -4 -6 -10 3 -8 13 -10 13
-10 -2 0 -12 10 -19 33 -22 48 -7 67 -4 67 11 0 8 -5 11 -10 8 -18 -11 -50 6
-50 26 0 11 -4 17 -10 14 -5 -3 -7 0 -4 8 6 16 36 18 46 3 5 -8 8 -7 8 1 0 7
6 10 13 8 6 -3 35 4 62 14 41 16 47 21 31 27 -13 5 -21 3 -24 -4 -4 -14 -62
-17 -62 -3 0 5 19 11 43 15 23 4 58 9 77 13 33 6 34 5 17 -11 -19 -20 -23 -41
-5 -30 7 4 24 9 37 10 14 2 27 8 29 14 5 15 22 12 22 -4 0 -11 8 -12 41 -5 23
6 51 15 63 22 39 22 91 37 109 31 9 -3 17 0 17 6 0 17 -26 23 -52 10 -21 -10
-21 -10 -5 3 24 20 193 44 182 27 -4 -6 0 -10 7 -11 7 0 20 -2 29 -4 8 -1 24
4 34 11 10 8 13 14 7 14 -7 0 -12 5 -12 10 0 6 11 10 25 10 15 0 25 -6 25 -14
0 -8 11 -17 25 -20 16 -4 23 -11 19 -18 -6 -9 -9 -9 -12 0 -2 7 -11 12 -20 12
-14 0 -13 -2 3 -14 33 -22 65 -29 81 -15 13 10 12 14 -2 30 -22 25 -11 35 22
21 14 -7 23 -8 19 -2 -3 5 2 10 12 10 15 0 16 2 3 10 -8 5 -28 10 -44 10 -38
0 -31 6 17 14 22 4 37 4 34 -1 -3 -4 1 -13 8 -20 14 -13 41 0 31 15 -10 17 31
24 56 10 13 -7 26 -17 30 -23 5 -6 8 -5 8 4 0 9 8 11 25 7 14 -4 25 -2 25 4 0
5 -9 10 -19 10 -11 0 -22 4 -25 9 -8 13 104 34 162 30 27 -2 48 -1 46 2 -4 7
111 30 239 49 46 7 74 7 87 0 10 -5 31 -10 47 -10 34 0 100 -30 130 -59 24
-23 55 -29 47 -8 -13 32 -90 76 -148 84 -36 5 -62 14 -66 23 -4 8 -18 53 -31
100 -12 47 -26 92 -30 100 -4 8 -28 78 -53 155 -25 77 -81 246 -125 375 -45
129 -79 241 -76 248 3 8 -4 25 -14 38 -11 14 -41 89 -66 167 -26 78 -58 171
-72 207 -14 36 -32 85 -39 110 -20 68 -101 301 -108 307 -3 4 -6 13 -6 21 0
22 -48 82 -66 82 -58 0 -146 -196 -224 -500 -5 -19 -13 -51 -19 -70 -5 -19
-16 -60 -24 -90 -56 -214 -69 -257 -77 -272 -6 -10 -10 -26 -10 -37 0 -11 -23
-109 -51 -218 -28 -109 -55 -216 -60 -238 -6 -22 -16 -58 -24 -80 -7 -22 -16
-53 -20 -68 -4 -21 -10 -27 -22 -23 -12 5 -14 1 -9 -19 6 -22 3 -25 -18 -25
-29 0 -43 -17 -27 -33 14 -14 15 -30 1 -22 -6 3 -13 -1 -16 -9 -3 -9 -15 -16
-25 -16 -11 0 -19 -7 -19 -16 0 -9 -9 -18 -21 -21 -13 -4 -19 -12 -16 -22 3
-14 -10 -16 -102 -16 -71 0 -110 -4 -119 -12 -11 -11 -10 -13 4 -13 10 0 15
-2 12 -5 -7 -8 -68 6 -68 16 0 5 7 6 15 3 9 -4 15 0 15 9 0 15 -31 26 -86 30
-14 1 -20 6 -17 14 4 9 -1 11 -13 7 -14 -4 -16 -3 -5 4 11 8 10 12 -5 21 -24
13 -9 14 17 1 10 -6 19 -8 19 -6 0 3 -9 10 -21 16 -15 8 -24 8 -33 0 -11 -8
-15 -5 -20 15 -4 14 -11 23 -15 20 -8 -4 -96 55 -111 75 -7 9 -43 24 -53 21
-5 -1 -6 3 -2 9 3 5 -1 10 -9 10 -9 0 -16 -5 -16 -11 0 -5 -5 -7 -11 -3 -8 4
-4 11 11 19 18 9 19 13 7 18 -8 3 -20 0 -26 -6 -7 -7 -12 -7 -11 -2 4 19 0 38
-6 32 -4 -4 -18 6 -30 21 -22 25 -26 26 -46 13 -20 -12 -21 -12 -11 0 9 11 8
18 -2 32 -14 20 -24 12 -20 -16 2 -9 -1 -15 -6 -11 -5 3 -7 10 -4 15 4 5 0 9
-8 9 -8 0 -20 7 -27 15 -15 18 1 20 19 2 11 -9 10 -7 0 11 -8 12 -17 22 -21
22 -4 0 -30 23 -58 50 -28 28 -56 50 -61 50 -5 0 -9 6 -9 14 0 8 -16 23 -36
35 -19 12 -33 17 -29 12 3 -5 1 -13 -5 -16 -6 -4 -9 -1 -8 7 2 7 -2 12 -8 11
-6 -1 -11 4 -11 12 0 8 4 12 9 9 4 -3 8 0 8 5 0 11 -16 15 -59 13 -22 -1 -23
0 -6 12 21 15 10 40 -17 42 -10 1 -15 -2 -13 -7 7 -11 -36 -2 -49 11 -5 5 -7
13 -3 17 4 3 14 -2 23 -13 14 -18 15 -18 4 3 -6 13 -17 23 -26 23 -8 0 -17 7
-20 15 -4 8 -13 15 -21 15 -8 0 -27 10 -41 22 -17 13 -20 19 -9 15 13 -5 17
-3 14 5 -2 7 -17 12 -33 11 -16 -1 -23 0 -16 3 16 8 15 32 -3 50 -8 9 -15 13
-15 10 0 -3 -9 2 -19 11 -11 9 -18 20 -15 25 3 5 2 7 -3 6 -14 -4 -54 23 -48
33 4 5 -1 9 -9 9 -8 0 -20 9 -26 21 -7 11 -14 18 -17 15 -4 -3 -15 2 -26 11
-11 10 -17 13 -14 6 4 -6 3 -15 -3 -18 -6 -4 -10 -3 -9 2 1 4 -3 20 -9 36 -11
26 -55 52 -72 42 -4 -3 -14 3 -21 12 -10 12 -10 14 -1 9 7 -4 12 -2 12 6 0 10
2 10 9 -1 7 -10 10 -10 16 -1 5 8 -4 22 -24 37 -17 13 -31 31 -31 38 0 8 -8
12 -20 10 -11 -2 -22 0 -25 6 -4 5 -15 9 -27 9 -14 0 -18 5 -14 15 3 8 -2 21
-10 27 -9 7 -29 25 -45 39 -15 15 -31 24 -35 20 -4 -3 -4 2 -1 12 4 11 3 16
-3 12 -6 -3 -10 2 -10 12 0 15 -2 16 -10 3 -9 -13 -10 -13 -10 0 0 9 -3 11 -8
5 -15 -21 -31 -15 -26 10 3 18 1 23 -10 19 -7 -3 -16 2 -19 10 -5 12 -14 14
-38 9 -29 -6 -32 -4 -27 15 8 29 -20 53 -33 29 -5 -9 -16 -14 -25 -10 -10 4
-12 9 -4 18 10 13 4 25 -14 25 -6 0 -4 -5 4 -11 12 -8 12 -10 1 -7 -8 2 -15
12 -17 21 -1 11 2 14 9 10 7 -4 5 1 -3 11 -14 18 -15 18 -20 -3 -5 -21 -5 -21
-45 6 -22 14 -43 31 -47 37 -4 6 -8 8 -8 4 0 -4 -12 4 -26 17 -15 14 -33 25
-40 25 -8 0 -14 4 -14 9 0 5 -12 16 -28 24 -117 61 -192 114 -192 136 0 3 -11
19 -25 35 -14 16 -25 35 -25 43 0 7 -5 13 -11 13 -5 0 -15 14 -20 30 -6 17
-17 30 -25 30 -8 0 -26 17 -41 38 -54 74 -137 161 -164 172 -40 17 -73 56 -65
76 5 13 9 15 18 6 20 -20 28 -14 28 22 0 28 4 35 26 40 24 6 25 8 10 19 -15
11 -15 17 -5 42 7 17 11 34 10 38 -3 17 23 76 31 71 5 -3 20 6 34 21 l24 26
-22 19 -23 19 25 1 c18 0 21 3 12 9 -11 6 -10 10 4 15 11 4 20 2 22 -3 2 -6 8
-11 13 -11 6 0 7 5 3 11 -9 15 17 61 31 55 12 -4 39 20 42 39 2 6 -9 11 -23
12 -31 2 -38 8 -29 22 4 8 12 8 26 1 13 -7 19 -7 19 0 0 5 11 10 25 10 14 0
25 -6 25 -12 0 -9 3 -10 8 -2 14 20 65 32 92 20 14 -6 28 -14 31 -19 11 -15
18 -13 35 11 15 22 14 24 -8 47 -13 13 -30 36 -38 52 -8 15 -25 42 -38 60 -13
18 -26 47 -29 65 -3 18 -9 40 -15 48 -8 13 -9 12 -4 -2 3 -11 0 -15 -7 -12
-15 5 -41 45 -28 42 5 -2 10 -1 11 2 3 9 -13 45 -28 62 -8 10 -12 26 -9 37 3
11 0 22 -5 23 -5 2 -13 19 -17 38 -6 29 -11 35 -32 32 -17 -1 -20 1 -10 7 9 6
10 11 2 15 -6 4 -11 15 -11 25 0 10 -10 30 -21 45 l-21 27 28 -3 c22 -2 29 2
35 22 4 14 8 18 8 10 1 -12 5 -11 16 4 8 10 12 23 9 27 -3 5 4 9 15 9 12 0 21
5 21 11 0 5 -4 8 -9 5 -5 -3 -24 0 -42 8 -32 13 -32 14 -10 25 12 7 26 9 31 6
6 -3 7 1 4 9 -8 21 3 20 24 0 10 -11 17 -13 20 -5 6 19 22 12 23 -11 1 -17 2
-19 6 -5 6 24 23 21 23 -5 0 -20 1 -20 19 -4 16 15 19 15 31 1 7 -8 21 -15 32
-15 10 0 17 -4 13 -9 -8 -13 61 -45 76 -35 7 4 9 3 6 -2 -3 -6 3 -15 13 -22
13 -8 21 -8 26 -1 4 7 13 4 25 -7 10 -9 19 -15 19 -12 0 6 70 -54 133 -114 28
-27 51 -48 52 -48 2 0 5 10 9 23 3 12 17 27 31 34 14 6 23 7 20 3 -3 -4 15
-15 40 -23 41 -14 48 -14 47 3 0 3 8 6 19 6 17 0 20 -4 18 -22 0 -3 9 -14 21
-24 13 -11 17 -21 10 -25 -12 -7 -4 -25 11 -25 6 0 7 5 3 11 -4 7 1 7 16 -1
13 -7 19 -15 14 -19 -16 -11 -15 -31 1 -25 8 4 15 1 15 -6 0 -7 9 -24 20 -40
11 -15 17 -30 14 -33 -3 -3 -1 -14 4 -24 8 -13 6 -25 -6 -45 -15 -25 -14 -28
11 -62 15 -19 27 -41 27 -48 0 -7 7 -22 15 -32 8 -11 15 -30 15 -43 0 -13 10
-29 24 -38 13 -9 29 -29 36 -45 7 -17 19 -30 26 -30 8 0 14 -11 14 -27 0 -29
25 -63 47 -63 8 0 12 -4 9 -9 -7 -11 20 -34 32 -27 5 3 8 -6 6 -20 -2 -19 3
-28 17 -31 14 -4 18 -11 14 -24 -4 -12 -1 -19 7 -19 8 0 20 -17 27 -37 7 -21
22 -45 34 -54 20 -16 15 -45 -5 -33 -7 4 -8 2 -4 -5 4 -6 12 -9 17 -6 5 4 17
1 26 -4 10 -6 13 -11 7 -11 -19 0 -23 -37 -8 -66 16 -30 17 -34 7 -33 -5 1
-15 1 -23 0 -11 -1 -12 -3 -3 -9 10 -6 10 -16 1 -46 -10 -33 -15 -37 -36 -31
-16 4 -29 1 -34 -7 -8 -10 -11 -10 -15 0 -6 14 -39 16 -48 2 -3 -6 1 -10 9
-10 21 0 70 -20 64 -26 -13 -12 -215 79 -277 126 -76 58 -197 155 -206 165
-19 23 -145 125 -154 125 -5 0 -22 -12 -38 -26 -23 -20 -28 -31 -25 -55 3 -17
11 -33 18 -36 8 -3 14 -11 14 -19 0 -8 5 -14 11 -14 5 0 7 -5 4 -11 -4 -6 2
-13 14 -16 11 -3 23 -13 26 -23 9 -27 41 -60 59 -60 9 0 16 -8 16 -20 0 -26
34 -60 60 -60 11 0 27 -11 36 -24 8 -14 27 -26 42 -28 19 -2 28 -10 30 -25 3
-17 10 -23 28 -23 15 0 24 -6 24 -15 0 -8 6 -15 13 -15 6 0 57 -30 111 -68 55
-37 111 -74 125 -83 18 -11 25 -24 23 -39 -2 -18 2 -21 17 -17 13 3 21 -1 25
-15 4 -17 10 -19 40 -14 36 7 36 7 36 -29 0 -19 2 -35 4 -35 2 0 11 -3 20 -6
11 -4 16 -1 16 10 0 26 38 20 42 -6 2 -18 11 -24 36 -26 20 -2 32 -9 32 -18 0
-17 12 -18 27 -3 7 7 15 3 26 -14 9 -14 28 -28 42 -31 15 -4 36 -18 48 -32 17
-18 33 -25 67 -27 25 -1 51 -8 58 -14 7 -7 22 -13 31 -13 20 0 80 -22 121 -44
27 -15 127 -54 205 -81 28 -9 59 -21 70 -25 96 -38 136 -51 146 -48 14 5 78
163 79 193 0 12 4 25 9 30 10 13 28 79 45 175 8 41 24 122 35 180 12 58 35
188 51 290 42 255 41 253 70 260 17 4 21 8 12 14 -6 4 -16 4 -22 1 -5 -3 -10
-1 -10 5 0 22 33 158 67 275 49 170 48 165 76 226 25 53 27 63 31 279 7 356
50 639 123 803 39 89 103 198 120 204 7 3 20 18 29 34 8 16 21 29 28 29 8 0
16 3 18 8 4 9 84 63 118 80 14 6 58 19 99 27 84 17 91 21 91 42 0 8 7 29 15
46 8 18 27 66 44 107 16 41 50 118 76 170 26 52 63 129 82 170 20 41 39 82 44
92 34 70 94 247 123 368 52 215 48 456 -11 737 -22 105 -27 154 -27 273 0 138
2 150 33 245 19 55 44 116 57 135 13 19 24 40 24 46 0 6 11 24 25 40 28 32 34
39 55 70 18 25 139 124 152 124 5 0 33 11 61 24 117 55 162 64 291 61 83 -2
133 -8 159 -19 38 -17 57 -14 57 7 1 37 230 317 260 317 4 0 26 14 48 30 23
17 44 30 47 30 3 0 34 13 68 28 77 36 173 63 218 61 19 0 50 4 69 9 19 5 51 8
70 6 19 -2 85 -9 145 -15z m5660 -110 c4 -6 5 -12 4 -14 -7 -7 -59 8 -59 16 0
13 47 11 55 -2z m-35 -33 c0 -3 -4 -8 -10 -11 -5 -3 -10 -1 -10 4 0 6 5 11 10
11 6 0 10 -2 10 -4z m77 -28 c-3 -7 -5 -2 -5 12 0 14 2 19 5 13 2 -7 2 -19 0
-25z m-107 2 c0 -11 -2 -20 -5 -20 -2 0 -9 9 -15 20 -9 16 -8 20 5 20 8 0 15
-9 15 -20z m60 0 c0 -5 -4 -10 -10 -10 -5 0 -10 5 -10 10 0 6 5 10 10 10 6 0
10 -4 10 -10z m147 -10 c15 -23 6 -31 -22 -19 -11 4 -14 8 -6 8 7 1 11 7 7 16
-8 22 7 18 21 -5z m-157 -40 c0 -5 -2 -10 -4 -10 -3 0 -8 5 -11 10 -3 6 -1 10
4 10 6 0 11 -4 11 -10z m227 -221 c-9 -5 -22 -7 -27 -4 -6 4 -10 -6 -11 -22
l-1 -28 -7 25 c-10 34 -5 40 32 40 27 -1 29 -2 14 -11z m-80 -24 c-4 -8 -2
-17 3 -20 6 -4 10 -14 10 -23 0 -13 -2 -14 -9 -3 -7 11 -9 11 -14 0 -3 -8 -6
-5 -6 8 -1 23 8 53 16 53 3 0 3 -7 0 -15z m189 -29 c3 -14 4 -33 1 -43 -4 -15
-5 -14 -6 4 0 12 -5 25 -11 28 -13 8 -13 35 0 35 5 0 12 -11 16 -24z m-226
-16 c0 -5 -6 -10 -14 -10 -8 0 -16 -6 -19 -12 -2 -7 -8 -10 -12 -6 -9 8 16 37
33 38 6 0 12 -4 12 -10z m330 -5 c-7 -8 -14 -15 -15 -15 -2 0 -5 7 -9 15 -4
10 1 15 16 15 17 0 18 -2 8 -15z m-261 -72 c-2 -32 -3 -33 -6 -10 -3 20 -9 27
-19 23 -8 -3 -14 -1 -14 3 0 9 16 18 33 20 4 1 6 -16 6 -36z m31 -15 c0 -5 -4
-8 -10 -8 -5 0 -10 10 -10 23 0 18 2 19 10 7 5 -8 10 -18 10 -22z m196 -15
c-10 -10 -19 5 -10 18 6 11 8 11 12 0 2 -7 1 -15 -2 -18z m-51 7 c4 -6 11 -7
17 -4 7 4 8 2 4 -5 -4 -6 0 -14 8 -17 17 -7 22 -49 7 -58 -16 -10 -43 5 -32
18 15 19 -6 59 -28 53 -14 -3 -18 -1 -14 9 6 16 29 19 38 4z m-11826 -39 c31
-33 110 -172 223 -391 76 -147 99 -190 193 -360 29 -52 79 -144 110 -205 32
-60 63 -117 70 -125 44 -52 80 -172 71 -232 -8 -52 -58 -129 -100 -154 -53
-31 -144 -22 -251 27 -22 10 -78 32 -125 50 -47 17 -98 37 -115 44 -16 7 -97
35 -180 63 -182 62 -435 155 -492 182 -24 11 -46 20 -50 20 -13 1 -47 33 -71
67 -60 85 2 223 100 223 42 0 173 -45 333 -115 114 -49 141 -60 355 -145 85
-33 188 -75 228 -92 74 -32 97 -32 70 -1 -8 10 -22 32 -30 48 -22 44 -97 173
-133 230 -18 28 -49 82 -70 120 -21 39 -41 75 -45 80 -7 10 -170 291 -225 390
-52 93 -59 109 -63 160 -3 44 0 55 28 90 36 46 50 53 103 54 31 1 45 -5 66
-28z m11921 -52 c0 -6 -4 -7 -10 -4 -5 3 -10 11 -10 16 0 6 5 7 10 4 6 -3 10
-11 10 -16z m-110 4 c0 -5 -5 -15 -10 -23 -8 -12 -10 -11 -10 8 0 12 5 22 10
22 6 0 10 -3 10 -7z m-50 -77 c0 -26 -6 -18 -14 19 -5 22 -4 26 4 15 5 -8 10
-24 10 -34z m150 25 c0 -6 -4 -13 -10 -16 -5 -3 -10 1 -10 9 0 9 5 16 10 16 6
0 10 -4 10 -9z m-22 -146 c-6 -14 -17 -25 -24 -25 -9 0 -10 6 -1 25 7 14 18
25 24 25 10 0 10 -6 1 -25z m32 -15 c0 -5 -4 -10 -10 -10 -5 0 -10 5 -10 10 0
6 5 10 10 10 6 0 10 -4 10 -10z m-40 -163 c0 -8 -9 -22 -20 -32 -21 -19 -24
-15 -14 23 7 24 34 31 34 9z m70 9 c0 -3 -4 -8 -10 -11 -5 -3 -10 -1 -10 4 0
6 5 11 10 11 6 0 10 -2 10 -4z m3 -101 c-9 -25 -19 -45 -24 -45 -10 0 -23 40
-15 47 3 4 6 -1 6 -10 0 -28 15 -19 18 10 1 15 -4 31 -10 36 -9 6 -8 7 5 3 9
-3 17 -1 17 5 0 6 4 8 9 5 4 -3 2 -26 -6 -51z m51 40 c-7 -16 -24 -21 -24 -6
0 8 7 13 27 20 1 1 0 -6 -3 -14z m-107 -57 c-3 -8 -6 -5 -6 6 -1 11 2 17 5 13
3 -3 4 -12 1 -19z m201 -5 c-2 -17 -10 -29 -21 -31 -16 -3 -17 -1 -7 17 6 12
8 26 5 31 -3 6 1 10 10 10 12 0 15 -7 13 -27z m-132 -40 c-11 -11 -19 6 -11
24 8 17 8 17 12 0 3 -10 2 -21 -1 -24z m59 -10 c16 -13 17 -15 3 -10 -12 4
-18 1 -18 -8 0 -9 -9 -13 -25 -11 -30 3 -33 21 -4 20 13 0 18 4 15 13 -7 17 4
16 29 -4z m73 -81 c6 -18 -15 -14 -22 4 -4 10 -1 14 6 12 6 -2 14 -10 16 -16z
m-148 -53 c0 -17 -20 -29 -20 -11 0 4 -3 18 -7 32 -6 22 -5 24 10 11 9 -7 17
-22 17 -32z m72 -11 c-3 -12 -7 -17 -10 -10 -6 19 -19 14 -26 -10 -4 -17 -8
-20 -17 -11 -17 17 7 53 35 53 20 0 23 -4 18 -22z m-58 -67 c-8 -8 -44 32 -37
42 3 5 14 -1 24 -14 10 -13 16 -26 13 -28z m124 24 c-3 -3 -9 2 -12 12 -6 14
-5 15 5 6 7 -7 10 -15 7 -18z m-88 -5 c0 -5 -5 -10 -11 -10 -5 0 -7 5 -4 10 3
6 8 10 11 10 2 0 4 -4 4 -10z m92 -127 c-8 -7 -18 -10 -21 -7 -3 4 0 9 7 11 6
3 12 9 12 14 0 6 -4 7 -10 4 -5 -3 -10 -2 -10 4 0 5 6 11 13 14 19 6 27 -26 9
-40z m-37 27 c3 -5 1 -10 -4 -10 -6 0 -11 5 -11 10 0 6 2 10 4 10 3 0 8 -4 11
-10z m-140 -262 c-19 -11 -30 -5 -21 11 4 6 14 7 22 4 15 -5 14 -7 -1 -15z
m62 -94 c-3 -3 -12 -4 -19 -1 -8 3 -5 6 6 6 11 1 17 -2 13 -5z m-57 -64 c0 -5
-7 -7 -15 -4 -8 4 -12 10 -9 15 6 11 24 2 24 -11z m-30 -89 c0 -5 -7 -14 -15
-21 -16 -14 -18 -10 -9 14 6 17 24 22 24 7z m-12767 -201 c35 -28 50 -79 42
-143 -8 -58 -25 -114 -128 -423 -38 -117 -68 -218 -65 -225 8 -19 276 -125
286 -113 4 5 17 41 29 79 12 39 50 158 83 265 34 107 66 209 71 226 14 47 43
74 82 81 42 6 72 -9 97 -50 27 -44 25 -83 -11 -195 -101 -318 -122 -378 -132
-387 -7 -5 -12 -23 -13 -40 0 -16 -2 -40 -5 -53 -3 -20 4 -26 61 -49 36 -14
83 -33 105 -43 22 -10 67 -30 99 -44 33 -15 63 -23 67 -19 7 8 64 180 143 433
76 244 79 251 113 277 42 32 91 26 127 -18 42 -49 42 -84 3 -205 -31 -95 -118
-373 -149 -474 -6 -19 -14 -39 -18 -45 -4 -5 -15 -41 -25 -80 -25 -99 -69
-188 -101 -205 -14 -8 -43 -15 -63 -15 -42 1 -149 42 -171 66 -8 9 -37 22 -63
28 -27 6 -92 29 -145 51 -96 39 -97 40 -96 72 1 18 0 27 -3 21 -3 -7 -13 -13
-23 -13 -10 0 -22 -5 -25 -10 -4 -7 -13 -6 -26 1 -15 8 -18 14 -10 23 12 15 5
26 -17 26 -8 0 -12 -6 -8 -15 8 -21 -13 -19 -78 10 -32 14 -56 31 -56 40 0 17
-16 20 -25 5 -3 -6 -27 1 -57 17 -42 22 -48 28 -32 34 18 7 18 7 0 14 -11 5
-21 3 -26 -4 -6 -10 -18 -9 -57 2 -143 43 -201 105 -189 204 3 30 10 61 15 71
5 9 30 87 55 172 24 85 49 169 55 185 6 17 36 111 67 210 31 99 65 197 76 218
29 58 93 75 141 37z m12647 4 c0 -2 -7 -4 -15 -4 -8 0 -15 4 -15 10 0 5 7 7
15 4 8 -4 15 -8 15 -10z m-11462 -1996 c-3 -7 -12 -14 -21 -16 -12 -2 -15 1
-11 12 7 19 38 22 32 4z m342 -38 c0 -5 -2 -10 -4 -10 -3 0 -8 5 -11 10 -3 6
-1 10 4 10 6 0 11 -4 11 -10z m348 -102 c-3 -7 -13 -15 -24 -17 -16 -3 -17 -1
-5 13 16 19 34 21 29 4z m242 -234 c0 -2 -9 0 -20 6 -11 6 -20 13 -20 16 0 2
9 0 20 -6 11 -6 20 -13 20 -16z m374 -782 c2 -4 -2 -16 -10 -27 -13 -18 -14
-18 -12 8 2 26 12 35 22 19z m-1794 -59 c0 -9 -8 -13 -22 -11 -31 4 -34 26 -3
26 15 0 25 -6 25 -15z m281 -52 c20 -11 56 -43 80 -72 24 -28 56 -64 72 -81
15 -16 27 -36 27 -44 0 -8 6 -14 14 -14 19 0 117 -145 113 -167 -7 -46 -56
-75 -82 -49 -28 27 -115 135 -115 142 0 4 -9 16 -21 28 -42 44 -249 291 -249
299 0 4 10 12 23 16 16 7 32 3 62 -14 22 -13 56 -33 76 -44z m-341 37 c0 -19
-2 -20 -10 -8 -13 19 -13 30 0 30 6 0 10 -10 10 -22z m108 -6 c2 -12 -2 -22
-8 -22 -6 0 -8 5 -5 11 4 6 -1 17 -11 25 -18 14 -18 15 1 12 12 -2 21 -12 23
-26z m-61 -14 c7 19 25 14 19 -5 -3 -10 -1 -25 5 -33 9 -13 10 -12 5 3 -3 9
-1 17 3 17 5 0 11 -5 13 -11 3 -8 10 -6 20 5 17 16 43 23 34 8 -2 -4 7 -13 22
-20 33 -16 95 -99 86 -114 -4 -6 -3 -8 4 -4 17 10 65 -40 58 -62 -6 -19 23
-55 41 -50 10 3 73 -64 73 -78 0 -4 -8 -16 -17 -27 -18 -19 -17 -20 5 -8 19
10 28 10 48 -4 14 -9 29 -26 33 -38 5 -12 22 -35 38 -50 25 -23 37 -27 74 -25
39 3 44 1 41 -17 -2 -16 -1 -17 7 -5 9 12 25 1 91 -65 44 -44 78 -85 76 -92
-3 -7 0 -12 6 -10 5 1 12 -6 13 -16 3 -13 -1 -17 -12 -13 -13 5 -14 4 -4 -8
13 -15 45 -11 35 5 -3 5 -3 9 0 9 3 0 12 -12 20 -27 17 -34 4 -50 -37 -49 -20
1 -27 -3 -27 -16 0 -19 40 -34 64 -25 14 5 46 -21 46 -37 0 -5 -11 -5 -24 -2
-35 9 -60 -2 -45 -20 9 -11 8 -14 -2 -14 -8 -1 -2 -8 14 -16 27 -15 37 -44 15
-44 -7 0 -26 -7 -42 -15 -21 -11 -32 -12 -42 -4 -7 6 -23 8 -34 4 -17 -5 -21
-3 -18 12 2 12 -4 19 -19 21 -13 2 -23 -1 -23 -7 0 -6 5 -11 10 -11 6 0 10 -4
10 -10 0 -6 -9 -6 -22 -1 -13 5 -22 14 -21 20 3 10 -4 12 -47 15 -8 1 -16 11
-18 24 -2 12 -8 22 -13 22 -5 0 -9 7 -9 16 0 13 -3 14 -15 4 -11 -9 -25 -7
-67 13 -29 13 -63 28 -75 31 -23 7 -32 26 -12 26 13 0 43 29 36 36 -3 3 -15
-1 -26 -8 -18 -11 -23 -11 -30 1 -5 7 -13 11 -19 7 -6 -4 -8 2 -4 16 3 14 2
19 -6 14 -8 -5 -12 0 -12 12 0 23 -30 38 -41 21 -4 -8 -8 -3 -11 12 -2 20 -8
23 -30 21 -27 -3 -78 22 -78 38 0 10 31 22 39 15 3 -3 -1 -10 -9 -15 -22 -14
37 -25 63 -12 21 10 21 11 -5 11 -19 1 -26 5 -22 15 3 8 -7 18 -28 26 -45 18
-68 39 -68 62 0 15 5 18 20 13 14 -4 20 -2 20 9 0 20 -31 36 -76 40 -36 3 -60
16 -31 16 18 0 24 16 9 22 -5 2 -12 15 -15 30 -6 24 -5 27 20 25 22 -2 27 2
25 17 -3 14 1 18 16 14 15 -4 18 -1 14 14 -4 17 -1 19 17 13 24 -7 30 12 6 21
-12 5 -13 9 -4 20 10 12 9 13 -5 8 -9 -3 -16 -10 -16 -15 0 -5 -7 -9 -15 -9
-8 0 -15 -4 -15 -10 0 -5 -5 -10 -11 -10 -5 0 -7 5 -3 11 4 7 0 9 -14 5 -16
-5 -21 -2 -24 14 -2 11 -6 19 -9 18 -3 -2 -13 3 -22 10 -9 8 -21 11 -27 7 -13
-8 -50 3 -50 16 0 5 15 9 33 10 l32 1 -35 13 c-43 16 -63 18 -55 5 3 -5 -1
-10 -9 -10 -9 0 -15 3 -15 8 8 49 -32 102 -76 102 -17 1 -41 7 -55 15 -24 14
-24 14 -3 15 12 0 23 3 26 8 2 4 2 1 1 -5 -2 -7 5 -13 16 -13 11 0 20 5 20 10
0 6 5 10 10 10 6 0 10 -7 10 -15 0 -17 17 -20 22 -4 2 5 11 7 22 3 13 -5 17
-14 12 -34 -4 -25 -2 -28 19 -26 14 0 25 7 25 14 0 7 -4 11 -9 8 -5 -3 -11 0
-14 8 -8 21 4 58 17 53 6 -2 22 0 35 5 22 8 23 10 7 26 -9 10 -13 22 -9 25 4
4 11 2 16 -5 7 -10 10 -10 14 0z m-127 -173 c0 -8 0 -18 1 -22 0 -4 -4 -9 -10
-11 -6 -2 -11 8 -11 22 0 14 5 26 10 26 6 0 10 -7 10 -15z m440 -69 c0 -11
-19 -15 -25 -6 -3 5 1 10 9 10 9 0 16 -2 16 -4z m-317 -34 c-1 -5 5 -13 13
-16 12 -5 15 -2 10 10 -5 13 -3 14 7 6 14 -12 21 -58 9 -66 -13 -8 -37 18 -49
52 -9 26 -9 32 0 29 7 -3 11 -9 10 -15z m-59 -24 c6 -22 7 -22 20 -5 13 16 14
15 19 -10 5 -27 -6 -43 -28 -43 -5 0 -4 4 4 9 11 7 9 10 -8 16 -11 3 -21 12
-21 18 0 7 -4 6 -10 -3 -8 -12 -10 -9 -10 13 0 33 25 37 34 5z m-44 8 c0 -3
-4 -8 -10 -11 -5 -3 -10 -1 -10 4 0 6 5 11 10 11 6 0 10 -2 10 -4z m55 -84
c-3 -3 -11 0 -18 7 -9 10 -8 11 6 5 10 -3 15 -9 12 -12z m65 -72 c0 -5 -2 -10
-4 -10 -3 0 -8 5 -11 10 -3 6 -1 10 4 10 6 0 11 -4 11 -10z m1940 -20 c0 -5
-2 -10 -4 -10 -3 0 -8 5 -11 10 -3 6 -1 10 4 10 6 0 11 -4 11 -10z m-1842 -57
c2 -13 -1 -23 -7 -23 -6 0 -11 7 -11 15 0 9 -10 20 -22 25 -21 9 -20 9 7 7 23
-1 31 -8 33 -24z m312 -317 c0 -3 -4 -8 -10 -11 -5 -3 -10 -1 -10 4 0 6 5 11
10 11 6 0 10 -2 10 -4z m1310 -388 c0 -5 -7 -3 -15 6 -8 8 -15 18 -15 22 0 3
7 1 15 -6 8 -7 15 -17 15 -22z m55 -17 c3 -5 1 -12 -5 -16 -5 -3 -10 -1 -10 5
0 6 -5 8 -12 4 -7 -4 -8 -3 -4 4 9 14 23 15 31 3z m777 -648 c-10 -4 -10 -8 0
-21 12 -15 11 -16 -4 -3 -19 14 -15 32 5 30 8 0 8 -2 -1 -6z m98 -73 c0 -5 -5
-10 -11 -10 -5 0 -7 5 -4 10 3 6 8 10 11 10 2 0 4 -4 4 -10z m6289 -36 c17 -4
31 -10 31 -14 0 -15 -32 -19 -53 -7 -12 7 -46 12 -74 12 -29 0 -53 3 -53 7 0
9 104 11 149 2z m376 -34 c3 -5 -1 -10 -9 -10 -9 0 -16 5 -16 10 0 6 4 10 9
10 6 0 13 -4 16 -10z m-200 -50 c3 -5 1 -10 -4 -10 -6 0 -11 5 -11 10 0 6 2
10 4 10 3 0 8 -4 11 -10z m-6180 -10 c3 -5 -1 -10 -9 -10 -9 0 -16 5 -16 10 0
6 4 10 9 10 6 0 13 -4 16 -10z m6154 -2 c0 -7 -4 -22 -8 -33 -8 -19 -8 -19
-18 0 -12 24 -6 45 13 45 8 0 14 -6 13 -12z m52 -56 c26 -21 34 -52 14 -52 -8
0 -17 5 -20 10 -3 6 -1 10 4 10 6 0 11 5 11 11 0 5 -5 7 -10 4 -6 -3 -13 1
-16 10 -4 9 -13 14 -21 11 -8 -3 -11 -1 -8 4 9 14 20 12 46 -8z m106 -8 c-3
-3 -12 -4 -19 -1 -8 3 -5 6 6 6 11 1 17 -2 13 -5z m-837 -64 c0 -5 -4 -10 -9
-10 -6 0 -13 5 -16 10 -3 6 1 10 9 10 9 0 16 -4 16 -10z m-4757 -100 c-4 -16
-33 -30 -33 -16 0 2 -3 11 -6 20 -5 12 0 16 19 16 20 0 24 -4 20 -20z m-128
-10 c-3 -5 -10 -10 -16 -10 -5 0 -9 5 -9 10 0 6 7 10 16 10 8 0 12 -4 9 -10z
m-258 -43 c0 -8 -14 -12 -39 -12 -21 0 -38 4 -38 9 0 5 3 7 6 4 3 -3 17 -2 32
2 38 12 39 11 39 -3z m-57 -31 c0 -2 -9 -6 -20 -9 -11 -3 -20 -1 -20 4 0 5 9
9 20 9 11 0 20 -2 20 -4z m930 -51 c0 -1 -6 -7 -13 -13 -10 -8 -13 -6 -14 8
-1 13 3 17 13 13 8 -3 14 -6 14 -8z m-1540 -99 c0 -15 -27 -25 -47 -19 -22 8
-14 22 15 26 15 2 28 5 30 6 1 0 2 -5 2 -13z m72 -9 c5 -9 5 -17 1 -17 -10 1
-43 25 -43 33 0 12 33 -1 42 -16z m-29 -23 c20 -4 37 -11 37 -16 0 -6 -6 -8
-14 -5 -7 3 -18 1 -24 -5 -6 -6 -24 -12 -40 -12 -24 -1 -28 2 -24 22 5 24 8
25 65 16z m6868 -78 c26 -8 64 -23 85 -34 70 -35 113 -43 152 -27 85 36 142
-1 185 -122 50 -140 60 -372 21 -504 -30 -99 -98 -183 -141 -173 -11 3 -30 1
-41 -5 -30 -16 -73 3 -100 44 -12 19 -36 69 -53 111 -59 151 -104 211 -184
249 -86 40 -146 29 -224 -41 -98 -88 -134 -214 -135 -474 0 -142 3 -176 23
-243 46 -161 110 -256 211 -314 50 -29 94 -35 167 -22 83 14 159 65 236 156
74 87 88 97 117 76 34 -24 50 -74 50 -161 0 -90 -26 -204 -66 -288 -32 -68
-95 -134 -127 -134 -14 0 -40 -18 -67 -46 -77 -78 -206 -151 -318 -179 -90
-21 -129 -20 -137 5 -7 21 -7 21 -41 -1 -41 -25 -63 -22 -169 18 -60 23 -83
40 -157 114 -74 75 -93 102 -136 191 -83 171 -111 291 -119 513 -14 374 89
723 294 991 117 153 290 277 425 303 69 14 199 12 249 -3z m-1466 -142 c22
-10 50 -35 63 -54 21 -30 23 -44 19 -97 -5 -69 -24 -103 -92 -168 -51 -48 -59
-80 -75 -290 -5 -77 -17 -230 -25 -340 -22 -299 -38 -661 -31 -709 5 -29 16
-52 37 -72 41 -39 59 -79 59 -129 0 -50 -7 -55 -81 -49 -30 2 -117 6 -194 8
-337 11 -447 26 -453 60 -3 13 14 36 51 70 63 59 60 46 77 322 12 186 8 210
-42 219 -49 9 -202 -11 -252 -34 -24 -10 -49 -28 -55 -40 -15 -27 -35 -341
-26 -409 5 -44 14 -61 45 -93 42 -43 63 -89 50 -110 -10 -16 -25 -16 -321 -1
-323 16 -393 31 -341 71 19 13 28 38 43 107 10 49 18 107 19 129 1 62 10 83
46 106 41 25 42 34 7 51 -51 24 -41 108 12 108 29 0 36 19 28 75 -7 58 -29 59
-40 3 -5 -24 -13 -41 -18 -38 -14 8 -5 83 13 96 11 8 16 29 16 75 1 35 7 74
13 85 10 18 9 24 -7 39 -17 15 -18 21 -7 34 16 19 11 125 -5 115 -8 -5 -8 36
-3 132 11 200 8 264 -14 294 -10 14 -21 42 -25 62 -8 45 -26 60 -26 23 0 -17
-5 -25 -12 -23 -22 8 -38 51 -38 104 0 73 45 138 120 176 95 47 185 62 375 63
163 0 172 -1 215 -25 63 -35 83 -77 76 -160 -6 -65 -27 -109 -67 -137 -29 -21
-62 -84 -70 -132 -5 -25 -11 -107 -15 -182 -9 -188 -13 -183 130 -176 61 3
128 11 149 17 65 19 72 40 75 246 l4 182 -41 45 c-58 63 -73 120 -51 199 31
109 144 161 384 176 145 9 251 1 301 -24z m-2152 -136 c68 -32 87 -65 87 -156
0 -66 -22 -105 -97 -174 -33 -30 -42 -46 -51 -95 -26 -135 -57 -741 -57 -1109
0 -178 2 -204 18 -221 35 -40 25 -43 -135 -43 -84 0 -169 -2 -188 -4 -43 -5
-176 11 -212 25 -33 13 -35 23 -26 119 3 41 7 141 7 221 1 125 -1 149 -16 160
-38 32 -281 0 -336 -44 -25 -20 -30 -32 -37 -97 -13 -105 -12 -285 1 -354 6
-32 8 -60 6 -62 -12 -13 -128 -4 -158 11 -44 23 -128 23 -212 0 l-67 -19 -28
22 c-15 12 -36 26 -47 31 -46 20 -47 27 -32 228 17 215 22 398 22 807 0 276
-1 289 -19 300 -11 6 -38 27 -60 47 -31 28 -41 46 -46 80 -8 56 12 134 42 166
37 41 131 82 210 94 40 5 101 14 134 20 34 5 115 9 180 9 104 0 125 -3 170
-24 73 -34 94 -68 94 -154 0 -58 -4 -75 -26 -108 -15 -21 -35 -45 -45 -51 -54
-39 -79 -148 -79 -341 0 -138 4 -150 45 -158 49 -9 234 14 275 34 53 26 60 51
62 229 3 177 -5 213 -53 259 -52 49 -62 79 -55 157 7 76 30 114 90 151 69 43
263 74 451 72 119 -1 135 -3 188 -28z m-2808 -136 c33 -11 82 -29 108 -41 58
-25 90 -26 147 -6 59 21 80 19 123 -10 56 -39 116 -165 143 -305 22 -116 19
-302 -7 -381 -27 -83 -83 -150 -144 -174 -96 -36 -156 5 -232 157 -108 213
-228 310 -368 295 -188 -19 -283 -205 -270 -530 10 -252 80 -435 213 -558 90
-84 139 -104 247 -104 80 0 97 3 155 31 62 30 89 53 209 178 76 80 117 76 156
-17 16 -39 22 -251 7 -274 -4 -6 -19 -16 -32 -21 -15 -6 -300 -8 -703 -6 -597
4 -681 2 -708 -11 -35 -18 -44 -15 -65 27 -74 144 -112 484 -79 719 29 215 89
396 188 569 82 143 118 187 238 295 88 79 210 145 323 175 93 26 262 21 351
-8z m3492 -674 c-3 -8 -6 -5 -6 6 -1 11 2 17 5 13 3 -3 4 -12 1 -19z"/>
<path d="M9248 13333 c7 -3 16 -2 19 1 4 3 -2 6 -13 5 -11 0 -14 -3 -6 -6z"/>
<path d="M5955 13807 c-39 -19 -108 -49 -153 -67 -45 -19 -82 -38 -82 -43 0
-4 18 -72 40 -149 22 -78 40 -145 40 -150 0 -5 7 -24 15 -43 l14 -35 52 20
c303 120 385 215 334 386 -22 74 -61 107 -132 111 -49 3 -69 -2 -128 -30z"/>
<path d="M11162 13418 c-7 -7 -12 -19 -12 -27 0 -11 5 -8 16 7 18 25 15 39 -4
20z"/>
<path d="M11316 13396 c7 -19 38 -22 32 -3 -3 6 -12 13 -21 15 -12 2 -15 -1
-11 -12z"/>
<path d="M10997 13394 c-4 -4 -7 -14 -7 -23 0 -11 3 -12 11 -4 6 6 10 16 7 23
-2 6 -7 8 -11 4z"/>
<path d="M11376 13374 c-11 -8 -16 -14 -10 -14 13 0 39 18 34 24 -3 2 -14 -2
-24 -10z"/>
<path d="M10905 13330 c-3 -5 1 -10 10 -10 9 0 13 5 10 10 -3 6 -8 10 -10 10
-2 0 -7 -4 -10 -10z"/>
<path d="M10950 13321 c0 -11 5 -23 10 -26 6 -3 10 -2 10 4 0 5 3 16 6 25 4
11 1 16 -10 16 -9 0 -16 -8 -16 -19z"/>
<path d="M11175 13331 c-3 -5 -1 -12 5 -16 14 -9 52 4 45 16 -8 12 -42 12 -50
0z"/>
<path d="M11475 13307 c-4 -10 -5 -21 -1 -24 10 -10 18 4 13 24 -4 17 -4 17
-12 0z"/>
<path d="M11507 13294 c-10 -10 -9 -44 2 -44 13 0 23 32 13 42 -5 5 -11 5 -15
2z"/>
<path d="M11398 13243 c6 -2 12 -11 12 -19 0 -8 5 -14 10 -14 16 0 11 27 -6
34 -9 3 -19 6 -22 5 -4 0 -1 -3 6 -6z"/>
<path d="M10824 13215 c-10 -8 -14 -14 -9 -15 15 0 40 18 34 24 -3 3 -14 -1
-25 -9z"/>
<path d="M11530 13221 c0 -6 4 -13 10 -16 6 -3 7 1 4 9 -7 18 -14 21 -14 7z"/>
<path d="M11392 13200 c0 -14 2 -19 5 -12 2 6 2 18 0 25 -3 6 -5 1 -5 -13z"/>
<path d="M11470 13201 c0 -5 -3 -16 -6 -25 -3 -9 -2 -16 4 -16 13 0 23 38 11
46 -5 3 -9 1 -9 -5z"/>
<path d="M11707 13146 c-14 -11 -15 -16 -6 -22 7 -4 15 -2 17 4 2 7 12 12 23
12 10 0 19 5 19 10 0 14 -32 12 -53 -4z"/>
<path d="M11770 13110 c0 -5 5 -10 11 -10 5 0 7 5 4 10 -3 6 -8 10 -11 10 -2
0 -4 -4 -4 -10z"/>
<path d="M11819 13099 c-10 -6 -7 -9 14 -9 29 0 35 5 14 13 -8 3 -20 1 -28 -4z"/>
<path d="M11197 13059 c-4 -16 -3 -18 9 -8 7 6 11 15 8 20 -8 13 -11 11 -17
-12z"/>
<path d="M11147 13050 c-3 -12 0 -20 7 -20 18 0 25 10 19 26 -7 20 -20 17 -26
-6z"/>
<path d="M11470 13040 c0 -13 11 -13 30 0 12 8 11 10 -7 10 -13 0 -23 -4 -23
-10z"/>
<path d="M11780 13006 c0 -2 9 -6 20 -9 11 -3 18 -1 14 4 -5 9 -34 13 -34 5z"/>
<path d="M11176 12975 c9 -14 20 -22 25 -19 14 8 10 24 -6 24 -8 0 -15 5 -15
10 0 6 -5 10 -10 10 -6 0 -3 -11 6 -25z"/>
<path d="M11655 12960 c10 -32 13 -36 25 -24 7 7 3 17 -11 30 -22 19 -22 19
-14 -6z"/>
<path d="M11930 12945 c0 -8 5 -15 10 -15 6 0 10 7 10 15 0 8 -4 15 -10 15 -5
0 -10 -7 -10 -15z"/>
<path d="M11900 12930 c0 -5 5 -10 10 -10 6 0 10 5 10 10 0 6 -4 10 -10 10 -5
0 -10 -4 -10 -10z"/>
<path d="M10856 12858 c-3 -10 -8 -25 -11 -33 -3 -11 3 -14 20 -13 28 3 31 15
11 44 -14 18 -15 18 -20 2z"/>
<path d="M11958 12803 c7 -3 16 -2 19 1 4 3 -2 6 -13 5 -11 0 -14 -3 -6 -6z"/>
<path d="M11850 12778 c0 -19 2 -20 10 -8 13 19 13 30 0 30 -5 0 -10 -10 -10
-22z"/>
<path d="M11880 12700 c0 -5 7 -10 15 -10 8 0 15 5 15 10 0 6 -7 10 -15 10 -8
0 -15 -4 -15 -10z"/>
<path d="M11958 12683 c7 -3 16 -2 19 1 4 3 -2 6 -13 5 -11 0 -14 -3 -6 -6z"/>
<path d="M11850 12660 c0 -5 5 -10 11 -10 5 0 7 5 4 10 -3 6 -8 10 -11 10 -2
0 -4 -4 -4 -10z"/>
<path d="M11970 12655 c0 -8 5 -15 10 -15 6 0 10 7 10 15 0 8 -4 15 -10 15 -5
0 -10 -7 -10 -15z"/>
<path d="M10867 12653 c-4 -3 -7 -11 -7 -17 0 -6 5 -5 12 2 6 6 9 14 7 17 -3
3 -9 2 -12 -2z"/>
<path d="M12047 12653 c-4 -3 -7 -18 -6 -32 1 -26 1 -25 10 3 9 31 7 41 -4 29z"/>
<path d="M12107 12648 c4 -7 8 -17 8 -22 0 -14 18 -17 34 -7 12 8 12 12 2 25
-16 19 -56 22 -44 4z"/>
<path d="M11782 12594 c2 -12 13 -20 31 -22 30 -4 37 12 10 22 -10 3 -24 9
-31 12 -10 4 -13 0 -10 -12z"/>
<path d="M12160 12599 c0 -5 5 -7 10 -4 6 3 10 8 10 11 0 2 -4 4 -10 4 -5 0
-10 -5 -10 -11z"/>
<path d="M12195 12600 c-3 -5 -1 -10 4 -10 6 0 11 5 11 10 0 6 -2 10 -4 10 -3
0 -8 -4 -11 -10z"/>
<path d="M11750 12580 c0 -5 5 -10 11 -10 5 0 7 5 4 10 -3 6 -8 10 -11 10 -2
0 -4 -4 -4 -10z"/>
<path d="M11957 12583 c-4 -3 -7 -11 -7 -17 0 -6 5 -5 12 2 6 6 9 14 7 17 -3
3 -9 2 -12 -2z"/>
<path d="M12290 12560 c0 -5 5 -10 10 -10 6 0 10 5 10 10 0 6 -4 10 -10 10 -5
0 -10 -4 -10 -10z"/>
<path d="M11885 12550 c3 -5 8 -10 11 -10 2 0 4 5 4 10 0 6 -5 10 -11 10 -5 0
-7 -4 -4 -10z"/>
<path d="M12221 12544 c0 -11 3 -14 6 -6 3 7 2 16 -1 19 -3 4 -6 -2 -5 -13z"/>
<path d="M11928 12533 c6 -2 18 -2 25 0 6 3 1 5 -13 5 -14 0 -19 -2 -12 -5z"/>
<path d="M12290 12423 c0 -12 5 -25 10 -28 13 -8 13 15 0 35 -8 12 -10 11 -10
-7z"/>
<path d="M11068 12393 c7 -3 16 -2 19 1 4 3 -2 6 -13 5 -11 0 -14 -3 -6 -6z"/>
<path d="M12335 12380 c-3 -5 -1 -10 4 -10 6 0 11 5 11 10 0 6 -2 10 -4 10 -3
0 -8 -4 -11 -10z"/>
<path d="M12288 12363 c7 -3 16 -2 19 1 4 3 -2 6 -13 5 -11 0 -14 -3 -6 -6z"/>
<path d="M12300 12308 c0 -7 -3 -23 -6 -36 -6 -21 -5 -22 18 -11 22 10 24 14
14 35 -12 26 -26 32 -26 12z"/>
<path d="M12355 12280 c3 -5 11 -10 16 -10 6 0 7 5 4 10 -3 6 -11 10 -16 10
-6 0 -7 -4 -4 -10z"/>
<path d="M12400 12224 c0 -8 5 -12 10 -9 6 3 10 10 10 16 0 5 -4 9 -10 9 -5 0
-10 -7 -10 -16z"/>
<path d="M12440 12210 c0 -5 4 -10 9 -10 6 0 13 5 16 10 3 6 -1 10 -9 10 -9 0
-16 -4 -16 -10z"/>
<path d="M12342 12180 c-7 -11 -10 -20 -6 -20 7 0 34 27 34 34 0 13 -16 5 -28
-14z"/>
<path d="M12475 12180 c-4 -12 -5 -24 -2 -27 3 -2 8 5 12 17 4 12 5 24 2 27
-3 2 -8 -5 -12 -17z"/>
<path d="M12495 12140 c-3 -6 1 -13 10 -16 10 -4 13 -13 10 -25 -8 -24 3 -24
22 -1 8 9 12 12 9 6 -3 -6 7 -22 21 -35 l26 -24 -21 36 c-12 20 -19 39 -15 43
4 4 0 4 -10 0 -12 -4 -17 -1 -17 10 0 18 -25 22 -35 6z"/>
<path d="M12395 12130 c-3 -5 1 -10 10 -10 9 0 13 5 10 10 -3 6 -8 10 -10 10
-2 0 -7 -4 -10 -10z"/>
<path d="M12606 12121 c-3 -4 1 -17 9 -27 8 -10 15 -14 15 -7 0 6 -5 15 -11
19 -8 4 -7 9 2 15 10 6 10 9 2 9 -6 0 -14 -4 -17 -9z"/>
<path d="M12470 12087 c0 -16 6 -30 16 -34 8 -3 13 -12 10 -19 -6 -17 33 -29
47 -15 8 8 5 11 -12 11 -16 0 -21 4 -17 15 3 8 1 15 -4 15 -5 0 -16 12 -24 28
l-15 27 -1 -28z"/>
<path d="M12710 12035 c-10 -13 -9 -15 8 -15 15 0 20 5 16 15 -4 8 -7 15 -9
15 -1 0 -8 -7 -15 -15z"/>
<path d="M12640 12010 c0 -5 5 -10 10 -10 6 0 10 5 10 10 0 6 -4 10 -10 10 -5
0 -10 -4 -10 -10z"/>
<path d="M12540 11995 c-10 -12 -10 -15 4 -15 9 0 16 7 16 15 0 8 -2 15 -4 15
-2 0 -9 -7 -16 -15z"/>
<path d="M12496 11955 c4 -8 10 -15 15 -15 5 0 9 7 9 15 0 8 -7 15 -15 15 -9
0 -12 -6 -9 -15z"/>
<path d="M12568 11963 c-11 -3 -18 -13 -17 -26 1 -17 2 -18 6 -4 2 9 11 17 19
17 8 0 14 5 14 10 0 6 -1 9 -2 9 -2 -1 -11 -3 -20 -6z"/>
<path d="M12670 11939 c0 -11 5 -17 10 -14 6 3 10 13 10 21 0 8 -4 14 -10 14
-5 0 -10 -9 -10 -21z"/>
<path d="M12701 11944 c0 -11 3 -14 6 -6 3 7 2 16 -1 19 -3 4 -6 -2 -5 -13z"/>
<path d="M12580 11902 c0 -6 -9 -13 -19 -17 -19 -6 -19 -7 1 -41 18 -30 23
-33 30 -20 5 9 21 16 36 16 l27 1 -24 13 c-13 7 -33 11 -44 8 -17 -4 -18 -3
-7 17 6 13 9 25 6 29 -3 3 -6 0 -6 -6z"/>
<path d="M12610 11900 c0 -5 5 -10 10 -10 6 0 10 5 10 10 0 6 -4 10 -10 10 -5
0 -10 -4 -10 -10z"/>
<path d="M12414 11869 c-3 -6 -1 -16 5 -22 8 -8 11 -5 11 11 0 24 -5 28 -16
11z"/>
<path d="M12730 11818 c0 -19 2 -20 10 -8 13 19 13 30 0 30 -5 0 -10 -10 -10
-22z"/>
<path d="M12570 11765 c0 -8 5 -15 10 -15 6 0 10 7 10 15 0 8 -4 15 -10 15 -5
0 -10 -7 -10 -15z"/>
<path d="M12425 11740 c4 -6 11 -8 16 -5 14 9 11 15 -7 15 -8 0 -12 -5 -9 -10z"/>
<path d="M12690 11733 c0 -5 6 -15 12 -21 10 -10 10 -15 -2 -22 -9 -6 -10 -10
-3 -10 6 0 15 5 19 11 4 8 9 7 15 -2 8 -12 10 -12 18 0 5 7 13 11 19 7 17 -10
21 8 7 28 -13 18 -41 14 -30 -5 7 -10 -24 -1 -42 14 -8 5 -13 6 -13 0z"/>
<path d="M12590 11720 c0 -5 5 -10 10 -10 6 0 10 -7 10 -15 0 -8 5 -15 10 -15
13 0 13 6 0 31 -11 20 -30 26 -30 9z"/>
<path d="M12823 11700 c2 -8 12 -16 23 -17 13 -2 15 -1 4 4 -8 3 -19 11 -23
17 -6 7 -7 6 -4 -4z"/>
<path d="M12395 11670 c-3 -5 -3 -14 0 -20 3 -5 2 -10 -4 -10 -6 0 -8 -7 -4
-16 3 -9 9 -11 12 -6 3 5 15 12 26 15 19 5 19 5 -3 12 -14 5 -21 13 -18 21 6
16 0 19 -9 4z"/>
<path d="M12778 11661 c-12 -4 -14 -11 -9 -20 6 -9 11 -10 15 -2 4 6 12 9 17
6 5 -4 9 -2 9 4 0 14 -13 19 -32 12z"/>
<path d="M12890 11650 c0 -11 4 -20 9 -20 5 0 7 9 4 20 -3 11 -7 20 -9 20 -2
0 -4 -9 -4 -20z"/>
<path d="M12837 11653 c-10 -9 -9 -23 2 -23 5 0 11 7 15 15 5 15 -5 20 -17 8z"/>
<path d="M12871 11624 c0 -11 3 -14 6 -6 3 7 2 16 -1 19 -3 4 -6 -2 -5 -13z"/>
<path d="M12430 11599 c0 -11 4 -18 10 -14 5 3 7 12 3 20 -7 21 -13 19 -13 -6z"/>
<path d="M12912 11605 c-13 -7 -19 -16 -14 -19 6 -3 13 -2 16 3 3 5 15 7 26 4
14 -4 20 0 20 11 0 19 -16 19 -48 1z"/>
<path d="M12837 11596 c-3 -8 -2 -18 3 -21 13 -8 20 9 11 24 -6 10 -10 9 -14
-3z"/>
<path d="M12808 11513 c7 -3 16 -2 19 1 4 3 -2 6 -13 5 -11 0 -14 -3 -6 -6z"/>
<path d="M12440 11440 c0 -28 4 -40 14 -40 20 0 25 20 13 53 -13 39 -27 33
-27 -13z"/>
<path d="M12814 11469 c-3 -6 -1 -16 5 -22 8 -8 11 -5 11 11 0 24 -5 28 -16
11z"/>
<path d="M12796 11345 c4 -8 10 -12 15 -9 11 6 2 24 -11 24 -5 0 -7 -7 -4 -15z"/>
<path d="M12978 11350 c12 -5 22 -14 22 -20 0 -5 7 -10 17 -10 14 0 14 2 -2
20 -10 11 -28 20 -39 19 -20 0 -20 -1 2 -9z"/>
<path d="M12940 11305 c-7 -8 -8 -15 -2 -15 5 0 12 -9 15 -20 6 -24 20 -26 40
-6 11 11 17 12 26 3 8 -8 11 -7 11 6 0 20 -30 23 -48 5 -9 -9 -12 -6 -12 15 0
30 -11 35 -30 12z"/>
<path d="M13045 11279 c-10 -15 3 -25 16 -12 7 7 7 13 1 17 -6 3 -14 1 -17 -5z"/>
<path d="M12390 11260 c0 -5 7 -7 15 -4 8 4 15 8 15 10 0 2 -7 4 -15 4 -8 0
-15 -4 -15 -10z"/>
<path d="M12988 11208 c-4 -9 -1 -21 5 -27 14 -14 47 -15 47 -1 0 5 -6 7 -13
4 -8 -3 -18 5 -24 17 -8 19 -11 20 -15 7z"/>
<path d="M12476 11175 c-9 -26 -7 -32 5 -12 6 10 9 21 6 23 -2 3 -7 -2 -11
-11z"/>
<path d="M13030 11160 c-13 -8 -13 -10 1 -10 9 0 19 -7 23 -15 8 -22 33 -18
47 6 10 19 9 20 -11 14 -15 -5 -20 -4 -16 4 9 14 -23 14 -44 1z"/>
<path d="M12778 11152 c-10 -2 -18 -12 -18 -23 0 -18 1 -18 21 2 23 23 22 27
-3 21z"/>
<path d="M12631 11081 c-21 -6 -22 -8 -7 -20 9 -7 16 -20 16 -28 0 -12 3 -13
13 -4 13 10 17 46 6 54 -2 2 -15 1 -28 -2z"/>
<path d="M12970 11086 c0 -2 7 -7 16 -10 8 -3 12 -2 9 4 -6 10 -25 14 -25 6z"/>
<path d="M12458 11013 c6 -2 18 -2 25 0 6 3 1 5 -13 5 -14 0 -19 -2 -12 -5z"/>
<path d="M13070 10956 c0 -9 7 -12 20 -9 11 3 20 9 20 14 0 5 -9 9 -20 9 -11
0 -20 -6 -20 -14z"/>
<path d="M12820 10938 c0 -9 5 -20 10 -23 13 -8 13 5 0 25 -8 13 -10 13 -10
-2z"/>
<path d="M13120 10896 c0 -8 -5 -16 -12 -18 -6 -2 -8 -10 -4 -16 5 -9 13 -9
27 -2 22 13 26 50 4 50 -8 0 -15 -6 -15 -14z"/>
<path d="M12515 10860 c3 -5 8 -10 11 -10 2 0 4 5 4 10 0 6 -5 10 -11 10 -5 0
-7 -4 -4 -10z"/>
<path d="M13056 10852 c-6 -10 17 -55 27 -53 4 0 7 3 7 6 0 3 0 14 0 24 0 19
-26 36 -34 23z"/>
<path d="M13124 10843 c-6 -2 -10 -17 -8 -34 2 -17 0 -27 -6 -24 -5 3 -8 -3
-8 -12 0 -10 -3 -26 -7 -35 -10 -26 13 -23 36 4 15 17 17 24 7 36 -11 13 -10
14 7 9 14 -5 24 -1 33 14 12 19 11 20 -7 14 -15 -4 -21 -2 -21 9 0 17 -10 25
-26 19z"/>
<path d="M13197 10794 c-3 -4 1 -13 9 -21 19 -20 26 -13 10 9 -7 10 -16 15
-19 12z"/>
<path d="M12564 10705 c21 -16 32 -13 21 4 -3 6 -14 11 -23 11 -15 -1 -15 -2
2 -15z"/>
<path d="M13275 10600 c-3 -6 1 -7 9 -4 18 7 21 14 7 14 -6 0 -13 -4 -16 -10z"/>
<path d="M13234 10477 c-8 -21 2 -35 16 -21 5 5 6 15 0 24 -8 12 -10 12 -16
-3z"/>
<path d="M13333 10470 c-6 -22 -23 -28 -23 -8 0 9 -3 9 -12 0 -10 -10 -10 -15
2 -22 8 -5 18 -10 22 -10 13 0 48 43 42 52 -9 15 -26 9 -31 -12z"/>
<path d="M12560 10440 c0 -5 7 -10 16 -10 8 0 12 5 9 10 -3 6 -10 10 -16 10
-5 0 -9 -4 -9 -10z"/>
<path d="M13372 10385 c3 -23 -1 -36 -10 -40 -10 -3 -12 0 -8 10 7 18 -5 20
-22 3 -21 -21 -13 -31 18 -25 16 4 32 2 35 -3 9 -15 25 -12 25 5 0 8 6 15 14
15 8 0 17 7 20 16 10 26 7 29 -9 8 -8 -11 -15 -14 -15 -6 0 6 -9 12 -21 12
-16 0 -19 4 -14 20 4 12 2 20 -5 20 -8 0 -11 -12 -8 -35z"/>
<path d="M12567 10359 c7 -7 15 -10 18 -7 3 3 -2 9 -12 12 -14 6 -15 5 -6 -5z"/>
<path d="M13260 10308 c0 -10 10 -22 21 -29 13 -6 19 -7 15 -1 -3 6 -3 12 1
15 5 2 2 2 -4 1 -7 -2 -17 5 -22 14 -10 16 -10 16 -11 0z"/>
<path d="M13330 10306 c0 -7 9 -16 19 -19 17 -4 18 -2 8 14 -14 22 -27 25 -27
5z"/>
<path d="M13386 10294 c-9 -24 -3 -26 30 -9 16 8 24 15 17 15 -6 0 -18 3 -26
6 -8 3 -17 -2 -21 -12z"/>
<path d="M13324 10265 c8 -8 20 -15 26 -15 7 0 6 6 -4 15 -8 8 -20 15 -26 15
-7 0 -6 -6 4 -15z"/>
<path d="M13428 10217 c-3 -13 -1 -34 4 -47 5 -13 6 -30 4 -37 -3 -7 -1 -13 4
-13 6 0 10 6 10 14 0 7 6 26 14 41 13 24 12 29 -5 46 -24 24 -26 24 -31 -4z
m27 -45 c-8 -9 -25 20 -18 31 3 5 10 2 15 -7 6 -10 7 -20 3 -24z"/>
<path d="M13378 10200 c-5 -33 6 -41 16 -12 3 9 9 23 12 30 3 6 -1 12 -9 12
-9 0 -17 -12 -19 -30z"/>
<path d="M13331 10151 c-11 -11 -27 -21 -38 -24 -11 -3 -5 -5 13 -6 18 0 34
-7 37 -15 6 -16 -11 -36 -30 -36 -7 0 -13 -5 -13 -11 0 -5 5 -7 11 -3 6 3 15
0 20 -7 6 -10 9 -11 9 -1 0 6 8 12 18 12 14 0 15 -2 2 -10 -13 -8 -12 -10 3
-10 9 0 17 -5 17 -11 0 -17 23 -5 26 15 1 11 -7 21 -24 27 l-27 11 24 19 23
19 -23 -2 c-21 -3 -24 1 -21 25 4 32 -1 34 -27 8z"/>
<path d="M11627 10124 c-8 -8 1 -24 14 -24 5 0 9 7 9 15 0 15 -12 20 -23 9z"/>
<path d="M13458 10053 c6 -2 18 -2 25 0 6 3 1 5 -13 5 -14 0 -19 -2 -12 -5z"/>
<path d="M13351 9931 c-8 -6 -9 -11 -3 -15 6 -3 14 -1 17 5 9 14 2 20 -14 10z"/>
<path d="M13370 9906 c0 -2 9 -6 20 -9 11 -3 20 -1 20 4 0 5 -9 9 -20 9 -11 0
-20 -2 -20 -4z"/>
<path d="M13500 9835 c0 -8 2 -15 4 -15 2 0 6 7 10 15 3 8 1 15 -4 15 -6 0
-10 -7 -10 -15z"/>
<path d="M13433 9765 c-18 -5 -33 -13 -33 -17 0 -13 38 -9 43 5 3 9 9 9 29 -2
28 -14 72 -7 65 12 -4 14 -60 15 -104 2z"/>
<path d="M13432 9718 c-7 -7 -18 -13 -24 -13 -6 0 -13 -6 -15 -12 -3 -7 0 -13
6 -13 6 0 11 -9 11 -20 0 -11 5 -20 10 -20 6 0 10 5 10 10 0 6 7 10 15 10 8 0
15 -4 15 -10 0 -5 5 -10 10 -10 6 0 10 8 10 17 0 9 3 13 8 9 4 -4 7 -13 7 -18
0 -6 6 -13 14 -16 10 -3 12 0 8 11 -4 10 1 20 11 26 14 9 13 10 -9 11 -15 0
-29 7 -33 15 -3 8 -12 12 -21 9 -8 -3 -15 -2 -15 4 0 6 6 13 13 15 8 4 7 6 -3
6 -9 1 -22 -5 -28 -11z"/>
<path d="M13560 9710 c8 -5 22 -10 30 -10 13 0 13 1 0 10 -8 5 -22 10 -30 10
-13 0 -13 -1 0 -10z"/>
<path d="M13500 9701 c0 -5 9 -7 20 -4 11 3 20 7 20 9 0 2 -9 4 -20 4 -11 0
-20 -4 -20 -9z"/>
<path d="M13322 9688 c-18 -18 -16 -123 3 -138 8 -7 15 -11 16 -9 0 2 3 29 5
59 3 30 6 64 7 74 2 23 -14 31 -31 14z"/>
<path d="M13595 9661 c3 -6 -3 -14 -12 -20 -10 -6 -13 -10 -8 -10 12 0 45 24
45 33 0 3 -7 6 -16 6 -8 0 -13 -4 -9 -9z"/>
<path d="M13528 9610 c-4 -25 -1 -30 15 -30 13 0 17 5 13 16 -3 9 -6 22 -6 30
0 27 -18 14 -22 -16z"/>
<path d="M13441 9613 c0 -7 -1 -16 0 -19 0 -4 -4 -10 -9 -13 -5 -3 -12 -16
-16 -28 -6 -17 -3 -23 8 -23 9 0 16 -4 16 -10 0 -5 -7 -10 -15 -10 -11 0 -14
-7 -9 -25 4 -15 1 -32 -6 -40 -11 -13 -10 -14 4 -9 9 3 19 17 22 30 3 13 10
24 14 24 5 0 6 9 3 19 -3 11 4 28 16 40 12 12 21 29 21 38 0 13 -3 14 -12 5
-18 -18 -26 -15 -31 11 -2 12 -5 16 -6 10z m24 -53 c-3 -5 -10 -10 -16 -10 -5
0 -9 5 -9 10 0 6 7 10 16 10 8 0 12 -4 9 -10z"/>
<path d="M13681 9604 c0 -11 3 -14 6 -6 3 7 2 16 -1 19 -3 4 -6 -2 -5 -13z"/>
<path d="M13512 9546 c4 -5 3 -15 -2 -21 -15 -18 34 -47 68 -42 l27 4 -27 2
c-17 0 -29 8 -33 20 -3 11 -13 25 -23 32 -9 7 -14 9 -10 5z"/>
<path d="M13470 9486 c0 -9 5 -16 10 -16 6 0 10 4 10 9 0 6 -4 13 -10 16 -5 3
-10 -1 -10 -9z"/>
<path d="M13511 9474 c0 -11 3 -14 6 -6 3 7 2 16 -1 19 -3 4 -6 -2 -5 -13z"/>
<path d="M13475 9440 c3 -5 8 -10 11 -10 2 0 4 5 4 10 0 6 -5 10 -11 10 -5 0
-7 -4 -4 -10z"/>
<path d="M13447 9373 c-4 -3 -7 -15 -7 -26 0 -14 5 -18 20 -14 11 3 22 1 25
-3 3 -4 20 -8 39 -7 25 1 36 6 39 19 5 19 -8 34 -17 20 -6 -10 -66 -3 -82 9
-6 5 -14 6 -17 2z m73 -33 c0 -5 -2 -10 -4 -10 -3 0 -8 5 -11 10 -3 6 -1 10 4
10 6 0 11 -4 11 -10z"/>
<path d="M13361 9244 c0 -11 3 -14 6 -6 3 7 2 16 -1 19 -3 4 -6 -2 -5 -13z"/>
<path d="M13412 9228 c-14 -14 -16 -28 -2 -28 5 0 14 9 20 20 12 22 1 27 -18
8z"/>
<path d="M13350 9172 c0 -12 7 -18 20 -17 27 2 37 14 20 25 -24 15 -40 12 -40
-8z"/>
<path d="M13285 9111 c-3 -5 -1 -12 5 -16 12 -7 30 2 30 16 0 12 -27 12 -35 0z"/>
<path d="M13350 9072 c0 -17 4 -34 10 -37 6 -4 7 6 3 27 -8 44 -13 48 -13 10z"/>
<path d="M13230 8976 c0 -13 -4 -26 -10 -28 -15 -5 2 -24 29 -33 21 -6 23 -5
19 13 -3 12 -1 23 4 24 14 5 -13 48 -29 48 -7 0 -13 -11 -13 -24z"/>
<path d="M13157 8833 c-12 -12 -7 -22 8 -17 8 4 15 10 15 15 0 11 -14 12 -23
2z"/>
<path d="M13068 8813 c7 -3 16 -2 19 1 4 3 -2 6 -13 5 -11 0 -14 -3 -6 -6z"/>
<path d="M12760 8570 c0 -5 9 -10 19 -10 11 0 23 5 26 10 4 6 -5 10 -19 10
-14 0 -26 -4 -26 -10z"/>
<path d="M12642 8498 c-7 -7 -12 -19 -12 -27 0 -11 5 -8 16 7 18 25 15 39 -4
20z"/>
<path d="M12550 8430 c-8 -5 -11 -12 -7 -16 4 -4 13 -2 19 4 15 15 7 24 -12
12z"/>
<path d="M11818 8053 c7 -3 16 -2 19 1 4 3 -2 6 -13 5 -11 0 -14 -3 -6 -6z"/>
<path d="M3522 12303 c-28 -16 -75 -49 -104 -74 -29 -26 -82 -68 -116 -94 -35
-27 -66 -54 -69 -61 -8 -22 173 -334 194 -334 13 0 70 40 113 80 9 8 33 29 54
45 98 78 176 187 176 246 0 38 -27 117 -53 153 -21 30 -87 65 -123 66 -12 0
-44 -12 -72 -27z"/>
<path d="M6345 10337 c-114 -45 -166 -124 -201 -302 -19 -98 -22 -217 -15
-715 4 -297 -5 -406 -44 -540 -9 -30 -21 -73 -27 -95 -23 -94 -83 -245 -123
-317 -75 -129 -70 -156 18 -115 103 47 165 98 376 307 215 214 262 271 327
401 41 81 67 182 51 198 -8 8 -8 14 1 23 7 7 12 31 12 54 0 48 -41 196 -71
257 -11 23 -23 61 -26 85 -3 23 -9 42 -14 42 -19 0 -85 182 -114 313 -21 99
-32 247 -25 335 3 40 3 75 1 78 -9 8 -97 2 -126 -9z"/>
<path d="M1985 6840 c3 -5 8 -10 11 -10 2 0 4 5 4 10 0 6 -5 10 -11 10 -5 0
-7 -4 -4 -10z"/>
<path d="M2760 6760 c0 -5 5 -10 11 -10 5 0 7 5 4 10 -3 6 -8 10 -11 10 -2 0
-4 -4 -4 -10z"/>
<path d="M8215 6339 c-38 -66 -77 -132 -86 -147 -64 -106 -128 -220 -165 -297
-25 -49 -49 -97 -54 -105 -23 -39 -169 -419 -195 -510 -7 -25 -23 -106 -35
-180 -19 -114 -21 -158 -16 -285 3 -82 10 -166 15 -185 29 -106 42 -142 75
-210 63 -130 173 -252 306 -338 69 -44 216 -118 278 -138 26 -9 52 -23 59 -31
7 -9 19 -13 28 -9 9 3 55 -3 102 -15 47 -11 89 -17 94 -12 15 15 239 447 239
461 0 12 81 165 96 183 8 8 14 19 14 24 0 5 52 111 115 237 138 276 168 346
196 457 38 153 16 240 -83 329 -59 52 -237 237 -354 367 -199 221 -518 525
-550 525 -5 0 -40 -54 -79 -121z"/>
<path d="M9870 5515 c0 -8 2 -15 4 -15 2 0 6 7 10 15 3 8 1 15 -4 15 -6 0 -10
-7 -10 -15z"/>
<path d="M4440 5440 c0 -5 5 -10 11 -10 5 0 7 5 4 10 -3 6 -8 10 -11 10 -2 0
-4 -4 -4 -10z"/>
<path d="M9846 5281 c-4 -7 -5 -15 -2 -18 9 -9 19 4 14 18 -4 11 -6 11 -12 0z"/>
<path d="M2412 5229 c6 -27 35 -39 35 -14 0 8 -3 13 -5 10 -3 -3 -11 0 -19 7
-11 9 -13 8 -11 -3z"/>
<path d="M6462 5094 c9 -9 21 -13 27 -10 20 13 11 26 -16 26 -25 0 -26 -1 -11
-16z"/>
<path d="M6380 5017 c0 -17 37 -39 45 -26 8 13 -13 39 -31 39 -8 0 -14 -6 -14
-13z"/>
<path d="M6735 4980 c3 -5 8 -10 11 -10 2 0 4 5 4 10 0 6 -5 10 -11 10 -5 0
-7 -4 -4 -10z"/>
<path d="M6352 4958 c2 -13 8 -23 13 -23 6 0 11 10 13 23 2 15 -2 22 -13 22
-11 0 -15 -7 -13 -22z"/>
<path d="M6827 4943 c-8 -13 2 -43 14 -43 10 0 10 8 0 34 -5 12 -10 16 -14 9z"/>
<path d="M3000 4835 c0 -8 5 -15 10 -15 6 0 10 7 10 15 0 8 -4 15 -10 15 -5 0
-10 -7 -10 -15z"/>
<path d="M3352 4441 c-11 -6 -9 -9 6 -13 15 -4 19 -2 15 8 -6 16 -4 16 -21 5z"/>
<path d="M9636 3766 c3 -8 12 -12 20 -9 17 6 9 23 -11 23 -8 0 -12 -6 -9 -14z"/>
<path d="M9895 3760 c-3 -5 1 -10 10 -10 9 0 13 5 10 10 -3 6 -8 10 -10 10 -2
0 -7 -4 -10 -10z"/>
<path d="M10045 3749 c-30 -4 -36 -7 -22 -13 9 -5 24 -6 32 -2 8 3 15 1 15 -5
0 -13 50 -3 65 13 7 7 2 9 -17 4 -14 -3 -28 -3 -30 2 -2 4 -21 4 -43 1z"/>
<path d="M10161 3719 c-19 -8 -21 -12 -11 -24 16 -19 30 -19 30 -1 0 8 8 16
18 18 14 3 14 5 2 9 -8 4 -26 2 -39 -2z"/>
<path d="M10229 3709 c-9 -5 -10 -9 -2 -9 6 0 19 -7 27 -16 15 -14 16 -14 16
4 0 23 -21 34 -41 21z"/>
<path d="M10348 3638 c-16 -6 -28 -14 -28 -18 0 -5 12 -5 28 0 15 5 36 10 47
12 l20 4 -20 5 c-11 3 -32 2 -47 -3z"/>
<path d="M10400 3601 c0 -17 3 -18 25 -8 32 15 32 27 0 27 -18 0 -25 -5 -25
-19z"/>
<path d="M9225 3550 c3 -5 8 -10 11 -10 2 0 4 5 4 10 0 6 -5 10 -11 10 -5 0
-7 -4 -4 -10z"/>
<path d="M9500 3545 c0 -8 7 -15 15 -15 8 0 15 4 15 9 0 5 -7 11 -15 15 -9 3
-15 0 -15 -9z"/>
<path d="M7560 3515 c13 -16 50 -21 50 -6 0 5 -10 11 -22 15 -36 9 -41 7 -28
-9z"/>
<path d="M5645 3490 c-3 -6 1 -13 10 -16 21 -9 26 -2 10 13 -9 8 -16 9 -20 3z"/>
<path d="M5725 3490 c-3 -5 -2 -10 4 -10 5 0 13 5 16 10 3 6 2 10 -4 10 -5 0
-13 -4 -16 -10z"/>
<path d="M5503 3477 c-3 -6 -1 -7 5 -3 7 4 12 2 12 -3 0 -13 37 -15 44 -2 3 5
-8 11 -25 13 -16 3 -33 0 -36 -5z"/>
<path d="M5320 3440 c0 -5 5 -10 10 -10 6 0 10 5 10 10 0 6 -4 10 -10 10 -5 0
-10 -4 -10 -10z"/>
<path d="M5477 3434 c-14 -15 -6 -34 14 -34 14 0 19 5 17 17 -3 18 -20 27 -31
17z"/>
<path d="M5790 3390 c0 -5 5 -10 10 -10 6 0 10 5 10 10 0 6 -4 10 -10 10 -5 0
-10 -4 -10 -10z"/>
<path d="M6178 3373 c7 -3 16 -2 19 1 4 3 -2 6 -13 5 -11 0 -14 -3 -6 -6z"/>
<path d="M5790 3340 c0 -5 5 -10 10 -10 6 0 10 5 10 10 0 6 -4 10 -10 10 -5 0
-10 -4 -10 -10z"/>
<path d="M5926 3341 c-4 -7 -5 -15 -2 -18 9 -9 19 4 14 18 -4 11 -6 11 -12 0z"/>
<path d="M4240 3186 c0 -8 13 -16 30 -18 34 -5 37 -1 13 18 -23 17 -43 18 -43
0z"/>
<path d="M4585 3191 c-3 -5 -1 -12 5 -16 12 -7 30 2 30 16 0 12 -27 12 -35 0z"/>
<path d="M597 7934 c-8 -14 8 -37 22 -33 8 3 8 10 -2 23 -8 11 -17 15 -20 10z"/>
<path d="M1880 5521 c0 -6 4 -13 10 -16 6 -3 7 1 4 9 -7 18 -14 21 -14 7z"/>
<path d="M1928 5489 c6 -7 12 -21 12 -31 0 -11 5 -15 14 -12 19 7 12 26 -17
43 -17 11 -19 11 -9 0z"/>
<path d="M1571 5684 c0 -11 3 -14 6 -6 3 7 2 16 -1 19 -3 4 -6 -2 -5 -13z"/>
<path d="M1516 5655 c-3 -8 -1 -15 4 -15 6 0 10 7 10 15 0 8 -2 15 -4 15 -2 0
-6 -7 -10 -15z"/>
<path d="M1545 5660 c3 -5 8 -10 11 -10 2 0 4 5 4 10 0 6 -5 10 -11 10 -5 0
-7 -4 -4 -10z"/>
<path d="M1590 5654 c0 -8 9 -14 20 -14 11 0 20 4 20 9 0 5 -9 11 -20 14 -13
3 -20 0 -20 -9z"/>
<path d="M1465 5650 c-3 -5 1 -10 10 -10 9 0 13 5 10 10 -3 6 -8 10 -10 10 -2
0 -7 -4 -10 -10z"/>
<path d="M1420 5584 c0 -8 5 -12 10 -9 6 3 10 10 10 16 0 5 -4 9 -10 9 -5 0
-10 -7 -10 -16z"/>
<path d="M1600 5560 c0 -24 15 -27 24 -4 9 22 8 24 -9 24 -8 0 -15 -9 -15 -20z"/>
<path d="M1659 5552 c5 -9 12 -25 15 -34 4 -13 16 -18 41 -18 45 0 45 12 0 29
-19 7 -35 16 -35 21 0 4 -7 10 -15 14 -11 4 -13 1 -6 -12z"/>
<path d="M1618 5356 c-26 -19 -22 -26 7 -13 14 7 25 15 25 20 0 11 -13 8 -32
-7z"/>
<path d="M1710 5350 c0 -5 5 -10 11 -10 5 0 7 5 4 10 -3 6 -8 10 -11 10 -2 0
-4 -4 -4 -10z"/>
<path d="M1628 5323 c7 -3 16 -2 19 1 4 3 -2 6 -13 5 -11 0 -14 -3 -6 -6z"/>
<path d="M1692 5285 c4 -4 3 -14 -4 -22 -8 -11 -7 -12 6 -7 19 7 21 20 4 30
-7 4 -10 4 -6 -1z"/>
<path d="M1680 5219 c0 -5 5 -7 10 -4 6 3 10 8 10 11 0 2 -4 4 -10 4 -5 0 -10
-5 -10 -11z"/>
<path d="M1701 5201 l-24 -6 28 -13 c15 -7 30 -10 33 -7 3 3 0 5 -7 5 -8 0
-11 7 -7 15 3 8 4 15 3 14 -1 -1 -13 -4 -26 -8z"/>
<path d="M2023 4922 c-8 -5 2 -8 25 -9 28 0 32 1 17 7 -26 11 -28 11 -42 2z"/>
<path d="M2080 4890 c0 -5 6 -10 14 -10 8 0 18 5 21 10 3 6 -3 10 -14 10 -12
0 -21 -4 -21 -10z"/>
<path d="M2140 4880 c-8 -5 -11 -12 -7 -16 4 -4 13 -2 19 4 15 15 7 24 -12 12z"/>
<path d="M2086 4845 c-3 -8 -1 -15 4 -15 13 0 22 18 11 24 -5 3 -11 -1 -15 -9z"/>
<path d="M2160 4845 c0 -17 2 -18 24 -9 18 7 12 24 -10 24 -8 0 -14 -7 -14
-15z"/>
<path d="M2260 4845 c-7 -9 -10 -18 -7 -21 3 -3 10 4 17 15 13 25 8 27 -10 6z"/>
<path d="M3958 2246 c-3 -14 -2 -26 3 -26 14 0 20 20 11 36 -8 14 -10 12 -14
-10z"/>
<path d="M3961 2068 l1 -43 14 33 c14 33 12 52 -7 52 -5 0 -9 -19 -8 -42z"/>
<path d="M3952 1998 c-14 -14 -16 -77 -2 -98 15 -24 25 17 10 44 -9 18 -9 29
-1 45 13 24 11 27 -7 9z"/>
<path d="M3957 1825 c-3 -17 -8 -41 -12 -54 -7 -19 -5 -22 11 -19 22 4 30 41
16 78 l-9 24 -6 -29z"/>
<path d="M3940 1660 c0 -5 5 -10 11 -10 5 0 7 5 4 10 -3 6 -8 10 -11 10 -2 0
-4 -4 -4 -10z"/>
<path d="M3955 1500 c-5 -8 -10 -21 -10 -30 -1 -8 -5 -25 -9 -37 -11 -33 12
-29 25 4 13 34 9 85 -6 63z"/>
<path d="M3962 1352 c-29 -26 -33 -35 -30 -73 4 -54 28 -66 28 -14 0 36 14 74
33 86 5 4 8 12 6 18 -3 7 -17 0 -37 -17z"/>
<path d="M3920 1108 c0 -16 5 -28 10 -28 13 0 13 20 0 40 -8 12 -10 9 -10 -12z"/>
</g>
</svg>
